<?xml version="1.0" encoding="UTF-8"?>
<svg id="Layer_2" data-name="Layer 2" xmlns="http://www.w3.org/2000/svg" viewBox="0 0 36.72 23.82">
  <defs>
    <style>
      .cls-1 {
        fill: #fff;
      }
    </style>
  </defs>
  <g id="Object">
    <path class="cls-1" d="M34.7,11.96c-.38,0-.73,.1-1.04,.29-.22-1.73-1.69-3.07-3.48-3.07-.3,0-.58,.04-.86,.11-.21-1-1.09-1.75-2.15-1.75-.48,0-.92,.15-1.28,.41-.57-1.97-2.38-3.41-4.53-3.41-.33,0-.65,.03-.96,.1-1.14-2.73-3.83-4.64-6.97-4.64-4.17,0-7.55,3.38-7.55,7.55,0,.62,.07,1.22,.21,1.79-.62-.39-1.35-.62-2.13-.62-2.19,0-3.97,1.78-3.97,3.97s1.78,3.97,3.97,3.97c.31,0,.61-.04,.89-.1-.07,.14-.11,.29-.14,.45-.12,.83,.46,1.61,1.29,1.73,.43,.06,.85-.06,1.17-.32,.6,1.41,1.89,2.48,3.52,2.72,1.18,.17,2.33-.13,3.24-.77,.12,1.7,1.41,3.16,3.17,3.41,1.81,.26,3.51-.83,4.06-2.51,.77,.6,1.7,1.02,2.74,1.17,3.19,.46,6.15-1.75,6.62-4.94,0-.05,.01-.1,.02-.15,.31,.44,.79,.76,1.36,.84,1.1,.16,2.13-.6,2.29-1.71,.03-.19,.03-.37,0-.55,.16,.04,.32,.06,.5,.06,1.11,0,2.02-.9,2.02-2.02s-.9-2.02-2.02-2.02Z"/>
  </g>
</svg>