<svg xmlns="http://www.w3.org/2000/svg" viewBox="0 0 500 500"><g id="freepik--background-complete--inject-96"><rect x="78.96" width="1" height="91.65" style="fill:#c7c7c7"></rect><polygon points="111.28 122.33 108.72 127.95 50.19 127.95 47.63 122.33 72.56 105.08 86.36 105.08 111.28 122.33" style="fill:#ebebeb"></polygon><polygon points="88.09 88.46 86.36 105.08 72.56 105.08 70.83 88.46 88.09 88.46" style="fill:#dbdbdb"></polygon><polygon points="111.28 122.33 108.72 127.96 50.18 127.96 47.63 122.33 111.28 122.33" style="fill:#dbdbdb"></polygon><rect x="147.29" width="1" height="73.5" style="fill:#c7c7c7"></rect><polygon points="179.62 104.17 177.06 109.8 118.52 109.8 115.97 104.17 140.89 86.92 154.7 86.92 179.62 104.17" style="fill:#ebebeb"></polygon><polygon points="156.43 70.31 154.7 86.92 140.89 86.92 139.16 70.31 156.43 70.31" style="fill:#dbdbdb"></polygon><polygon points="179.62 104.18 177.06 109.8 118.52 109.8 115.97 104.18 179.62 104.18" style="fill:#dbdbdb"></polygon><path d="M252.13,162.64l.2,77.6a7.85,7.85,0,0,1-7.83,7.88l-123.07.32a7.85,7.85,0,0,1-7.87-7.84l-.2-77.6a7.3,7.3,0,0,1,7.28-7.32l124.16-.33A7.31,7.31,0,0,1,252.13,162.64Z" style="fill:#dbdbdb"></path><path d="M232.3,229.36a7.23,7.23,0,1,1-7.24-7.21A7.22,7.22,0,0,1,232.3,229.36Z" style="fill:#a6a6a6"></path><path d="M241.2,229.34a7.23,7.23,0,1,1-7.25-7.21A7.23,7.23,0,0,1,241.2,229.34Z" style="fill:#37474F"></path><rect x="125.06" y="168.96" width="26.05" height="18" rx="4.2" transform="translate(-0.46 0.36) rotate(-0.15)" style="fill:#37474F"></rect><path d="M236.13,178.58l-11.79,0a4.94,4.94,0,0,1-5-4.93h0a4.94,4.94,0,0,1,4.93-5l11.78,0a4.94,4.94,0,0,1,5,4.93h0A4.94,4.94,0,0,1,236.13,178.58Z" style="fill:#fff"></path><path d="M124.17,203.41l-1.07.63a.28.28,0,0,1-.13,0,.26.26,0,0,1-.23-.13.25.25,0,0,1,.1-.35l1.45-.89a.28.28,0,0,1,.36.09.35.35,0,0,1,0,.2l0,6.94a.26.26,0,0,1-.26.26.26.26,0,0,1-.26-.26Z" style="fill:#f8f8f8"></path><path d="M126.55,209.73l3.53-3.19a2,2,0,0,0,.64-1.45,1.91,1.91,0,0,0-.51-1.3,2,2,0,0,0-2.75-.13l-.37.34a.26.26,0,0,1-.36-.38l.37-.35a2.53,2.53,0,0,1,1.67-.64,2.49,2.49,0,0,1,2.47,2.46,2.46,2.46,0,0,1-.81,1.83l-3,2.74H131a.27.27,0,0,1,0,.53h-4.25a.24.24,0,0,1-.19-.07A.29.29,0,0,1,126.55,209.73Z" style="fill:#f8f8f8"></path><path d="M137.48,203.08l-1.95,2a2.53,2.53,0,0,1,1.3.68,2.58,2.58,0,0,1-1.81,4.39,2.52,2.52,0,0,1-1.81-.75.26.26,0,0,1,0-.38.27.27,0,0,1,.38,0,2,2,0,0,0,1.42.58,2.1,2.1,0,0,0,1.44-.58,2,2,0,0,0,.59-1.44,2,2,0,0,0-.6-1.43,2,2,0,0,0-1.43-.59.28.28,0,0,1-.21-.1h0a.27.27,0,0,1,0-.39l1.87-1.94h-2.89a.27.27,0,0,1-.27-.27.26.26,0,0,1,.27-.27h3.53a.27.27,0,0,1,.27.27.17.17,0,0,1,0,.12A.22.22,0,0,1,137.48,203.08Z" style="fill:#f8f8f8"></path><path d="M143.84,208.59l-4.09,0h0a.25.25,0,0,1-.16-.06.25.25,0,0,1,0-.37l4.36-5.45h0a.27.27,0,0,1,.45.1s0,0,0,0v5.22h.51a.27.27,0,0,1,.27.26.26.26,0,0,1-.27.26h-.5v1.3a.27.27,0,0,1-.53,0Zm0-.51v-4.43l-3.57,4.44Z" style="fill:#f8f8f8"></path><path d="M153.31,209.38a.26.26,0,0,1,0-.38.27.27,0,0,1,.39,0,2,2,0,0,0,2.85,0,2,2,0,0,0,.59-1.42,2,2,0,0,0-2-2,2,2,0,0,0-1.43.6.26.26,0,0,1-.38,0,.16.16,0,0,1-.06-.08v0a0,0,0,0,1,0,0,.11.11,0,0,1,0-.08s0,0,0-.06l.36-3a.24.24,0,0,1,.11-.2.25.25,0,0,1,.17-.06h3.52a.27.27,0,0,1,.27.27.25.25,0,0,1-.26.27h-3.3l-.26,2.24a2.56,2.56,0,0,1,3.09.39,2.58,2.58,0,0,1,0,3.63,2.63,2.63,0,0,1-1.82.75A2.55,2.55,0,0,1,153.31,209.38Z" style="fill:#f8f8f8"></path><path d="M160.49,204.2a3.08,3.08,0,0,1,2.64-1.65.26.26,0,0,1,.27.25.28.28,0,0,1-.26.28,2.56,2.56,0,0,0-2.19,1.38,4.93,4.93,0,0,0-.54,1.51,2.49,2.49,0,1,1-.62,1.73,4,4,0,0,1,0-.5A6.21,6.21,0,0,1,160.49,204.2Zm-.17,3.46a.68.68,0,0,0,0,.14.15.15,0,0,1,0,.07,2,2,0,1,0,0-.26Z" style="fill:#f8f8f8"></path><path d="M167.54,209.72l2.78-6.64h-3.65a.26.26,0,0,1-.26-.25.26.26,0,0,1,.26-.26h4a.33.33,0,0,1,.17,0,.32.32,0,0,1,.14.16.24.24,0,0,1,0,.08.21.21,0,0,1,0,.14l-2.91,7a.28.28,0,0,1-.24.17.23.23,0,0,1-.11,0A.3.3,0,0,1,167.54,209.72Z" style="fill:#f8f8f8"></path><path d="M175,202.51a1.57,1.57,0,0,1,.93,2.84,2.44,2.44,0,1,1-1.86,0,1.58,1.58,0,0,1-.63-1.27A1.55,1.55,0,0,1,175,202.51Zm0,7a1.93,1.93,0,1,0-1.94-1.93A1.93,1.93,0,0,0,175,209.55Zm0-4.4a1.08,1.08,0,0,0,1.05-1.08,1,1,0,0,0-1.06-1,1,1,0,0,0-1,1.05A1.07,1.07,0,0,0,175,205.15Z" style="fill:#f8f8f8"></path><path d="M188.42,202.48a2.48,2.48,0,0,1,2.49,2.19l0,.06c0,.2,0,.42,0,.64a6.25,6.25,0,0,1-.71,3A3.13,3.13,0,0,1,187.6,210h0a.26.26,0,0,1-.27-.25.27.27,0,0,1,.25-.28,2.57,2.57,0,0,0,2.2-1.38,4.77,4.77,0,0,0,.54-1.51,2.45,2.45,0,0,1-1.88.83,2.49,2.49,0,1,1,0-5Zm2,2.47a2,2,0,1,0-2,2A2,2,0,0,0,190.4,205Z" style="fill:#f8f8f8"></path><path d="M192.85,206.24a4.76,4.76,0,0,1,.72-2.64,2.14,2.14,0,0,1,3.78,0,5,5,0,0,1,.74,2.64,4.9,4.9,0,0,1-.73,2.64,2.13,2.13,0,0,1-3.78,0A4.71,4.71,0,0,1,192.85,206.24Zm.53,0a4.25,4.25,0,0,0,.64,2.34,1.83,1.83,0,0,0,1.45.91,1.87,1.87,0,0,0,1.45-.91,4.4,4.4,0,0,0,.64-2.35,4.26,4.26,0,0,0-.66-2.34,1.79,1.79,0,0,0-1.45-.9,1.76,1.76,0,0,0-1.44.91A4.25,4.25,0,0,0,193.38,206.24Z" style="fill:#f8f8f8"></path><path d="M201.57,203.21l-1.07.63a.24.24,0,0,1-.35-.09.24.24,0,0,1,.09-.35l1.46-.89a.27.27,0,0,1,.36.09.35.35,0,0,1,0,.2l0,6.94a.26.26,0,0,1-.26.26.26.26,0,0,1-.26-.26Z" style="fill:#f8f8f8"></path><path d="M204,209.53l3.52-3.19a2,2,0,0,0,.65-1.45,2,2,0,0,0-.51-1.3,2,2,0,0,0-2.76-.13l-.36.34a.27.27,0,0,1-.37,0,.25.25,0,0,1,0-.37l.37-.35a2.51,2.51,0,0,1,1.67-.64,2.38,2.38,0,0,1,1.81.81,2.35,2.35,0,0,1,.65,1.65,2.42,2.42,0,0,1-.8,1.83l-3,2.74h3.58a.27.27,0,0,1,0,.53h-4.25a.26.26,0,0,1-.2-.07A.28.28,0,0,1,204,209.53Z" style="fill:#f8f8f8"></path><path d="M221.36,202.87l-2,2a2.55,2.55,0,0,1,1.3,4.31,2.58,2.58,0,0,1-1.82.76,2.47,2.47,0,0,1-1.8-.75.25.25,0,0,1,0-.37.27.27,0,0,1,.38,0,2,2,0,0,0,1.42.58,2.05,2.05,0,0,0,1.44-.58,2,2,0,0,0,.59-1.44,2,2,0,0,0-.6-1.42,2,2,0,0,0-1.43-.59.29.29,0,0,1-.21-.11h0a.27.27,0,0,1,0-.39l1.87-1.94h-2.89a.26.26,0,0,1-.27-.27.25.25,0,0,1,.26-.27h3.53a.28.28,0,0,1,.28.27.25.25,0,0,1,0,.12A.41.41,0,0,1,221.36,202.87Z" style="fill:#f8f8f8"></path><path d="M227.72,208.38h-4.13a.2.2,0,0,1-.16-.06.24.24,0,0,1,0-.36l4.36-5.46h0a.25.25,0,0,1,.36,0,.28.28,0,0,1,.09.13s0,0,0,0v5.22h.51a.26.26,0,1,1,0,.51h-.5v1.29a.27.27,0,0,1-.53,0Zm0-.52v-4.43l-3.56,4.44Z" style="fill:#f8f8f8"></path><path d="M230.72,209.18a.27.27,0,0,1,0-.38.27.27,0,0,1,.39,0,2,2,0,0,0,1.43.58,2,2,0,0,0,2-2,2,2,0,0,0-2-2,2,2,0,0,0-1.43.6.26.26,0,0,1-.38,0,.16.16,0,0,1-.07-.09h0a0,0,0,0,1,0,0,.22.22,0,0,1,0-.09.43.43,0,0,0,0-.05l.36-3a.22.22,0,0,1,.11-.2.25.25,0,0,1,.17-.06h3.52a.27.27,0,1,1,0,.54h-3.29l-.27,2.24a2.56,2.56,0,0,1,3.09.39,2.49,2.49,0,0,1,.75,1.81,2.53,2.53,0,0,1-.74,1.82,2.59,2.59,0,0,1-1.81.75A2.56,2.56,0,0,1,230.72,209.18Z" style="fill:#f8f8f8"></path><path d="M237.9,204a3.07,3.07,0,0,1,2.64-1.65.26.26,0,0,1,.27.25.28.28,0,0,1-.26.28,2.57,2.57,0,0,0-2.2,1.38,4.67,4.67,0,0,0-.53,1.51,2.48,2.48,0,1,1-.63,1.73,4,4,0,0,1,0-.5A6.22,6.22,0,0,1,237.9,204Zm-.18,3.46a.35.35,0,0,0,0,.14.08.08,0,0,1,0,.07,2,2,0,0,0,2,1.7,2,2,0,1,0-2-2Z" style="fill:#f8f8f8"></path><rect x="125.18" y="223.07" width="65.9" height="3.24" transform="translate(-0.58 0.41) rotate(-0.15)" style="fill:#a6a6a6"></rect><rect x="125.2" y="230.29" width="46.66" height="3.24" transform="translate(-0.6 0.39) rotate(-0.15)" style="fill:#a6a6a6"></rect><rect x="181.98" y="168.8" width="32.87" height="3.24" transform="translate(-0.44 0.52) rotate(-0.15)" style="fill:#a6a6a6"></rect><rect x="404.03" y="34.79" width="56.67" height="56.67" style="fill:#ebebeb"></rect><path d="M433.31,43.89a1.92,1.92,0,0,1,1.93,1.92v1a16.24,16.24,0,0,1,6.94,2.46,2.39,2.39,0,0,1,1.34,2.15A2.47,2.47,0,0,1,441,53.88a2.61,2.61,0,0,1-1.34-.41,16.38,16.38,0,0,0-4.61-2v8.6c6.81,1.71,9.72,4.44,9.72,9.23s-3.86,8.2-9.54,8.74v2.69a1.92,1.92,0,0,1-1.93,1.92,1.94,1.94,0,0,1-2-1.92V78a19.41,19.41,0,0,1-9.19-3.5,2.46,2.46,0,0,1-1.21-2.15,2.43,2.43,0,0,1,2.47-2.46,2.48,2.48,0,0,1,1.48.49,15.62,15.62,0,0,0,6.63,3V64.54c-6.54-1.7-9.59-4.17-9.59-9.23,0-4.79,3.81-8.11,9.41-8.56v-.94A1.94,1.94,0,0,1,433.31,43.89Zm-1.79,15.27V51.23c-2.87.27-4.3,1.79-4.3,3.77S428.07,58,431.52,59.16Zm3.54,6.23v8.15c2.86-.31,4.43-1.74,4.43-3.89C439.49,67.67,438.5,66.46,435.06,65.39Z" style="fill:#fff"></path></g><g id="freepik--Floor--inject-96"><polygon points="41.45 421.79 93.59 421.55 145.73 421.46 250 421.3 354.27 421.46 406.41 421.55 458.55 421.79 406.41 422.04 354.27 422.13 250 422.29 145.73 422.13 93.59 422.04 41.45 421.79" style="fill:#263238"></polygon></g><g id="freepik--Shadow--inject-96"><ellipse cx="250" cy="444.22" rx="219.75" ry="27.51" style="fill:#ebebeb"></ellipse></g><g id="freepik--Device--inject-96"><path d="M434.14,89V411a17,17,0,0,1-16.86,17.17H250.7A17,17,0,0,1,233.85,411V89A17,17,0,0,1,250.7,71.82H417.28A17,17,0,0,1,434.14,89Z" style="fill:#263238"></path><path d="M423.61,105.16V400.41c0,9-6.76,16.33-15.09,16.33h-149c-8.35,0-15.11-7.31-15.11-16.33V105.16c0-18.4,6.76-22.46,15.11-22.46h29.85c1.73,0,3.14,2,3.14,4.41v1c0,5.73,3.14,5.75,7,5.75h69c3.88,0,7,0,7-5.75v-1c0-2.44,1.4-4.41,3.15-4.41h29.87C416.85,82.7,423.61,88.31,423.61,105.16Z" style="fill:#fff"></path><path d="M343.41,86.76H324.58a1.16,1.16,0,0,1-1.17-1.16h0a1.16,1.16,0,0,1,1.17-1.16h18.83a1.16,1.16,0,0,1,1.16,1.16h0A1.16,1.16,0,0,1,343.41,86.76Z" style="fill:#fff"></path><path d="M398.62,288c-1.61,3-5.48,5.57-5.48,5.57s-3.87-2.61-5.48-5.57c-1.82-3.34-.82-6.76,1.8-6.76,2.92,0,3.68,3.64,3.68,3.64s.76-3.64,3.67-3.64C399.43,281.21,400.44,284.63,398.62,288Z" style="fill:#37474F"></path><rect x="268.44" y="107.91" width="14.99" height="2.47" style="fill:#dbdbdb"></rect><rect x="268.44" y="112.84" width="14.99" height="2.47" style="fill:#dbdbdb"></rect><rect x="268.44" y="117.78" width="14.99" height="2.47" style="fill:#dbdbdb"></rect><rect x="356.59" y="112.11" width="2.07" height="8.35" transform="translate(2.34 239.55) rotate(-37.15)" style="fill:#dbdbdb"></rect><path d="M357.73,109.52a4.49,4.49,0,1,1-6.3-.84A4.48,4.48,0,0,1,357.73,109.52Z" style="fill:#dbdbdb"></path><path d="M356.29,110.61a2.69,2.69,0,1,1-3.76-.49A2.69,2.69,0,0,1,356.29,110.61Z" style="fill:#fff"></path><path d="M380.44,114.68c-1.62,3-5.49,5.56-5.49,5.56s-3.87-2.6-5.47-5.56c-1.82-3.35-.82-6.77,1.8-6.77,2.92,0,3.67,3.64,3.67,3.64s.77-3.64,3.68-3.64C381.25,107.91,382.26,111.33,380.44,114.68Z" style="fill:#dbdbdb"></path><path d="M397.81,117.77h-9.05l-2.28-9.17h-.9v-.78h1.51l.45,1.81h12.52Zm-8.44-.78h7.85l1.82-6.57H387.73Z" style="fill:#dbdbdb"></path><polygon points="396.35 119.25 395.72 117.76 390.59 117.76 390.08 119.22 389.35 118.97 390.03 116.98 396.24 116.98 397.06 118.94 396.35 119.25" style="fill:#dbdbdb"></polygon><rect x="387.68" y="111.43" width="11.3" height="0.78" style="fill:#dbdbdb"></rect><rect x="393.01" y="108.63" width="0.78" height="10.23" transform="translate(277.91 506.64) rotate(-89.75)" style="fill:#dbdbdb"></rect><rect x="388.71" y="115.33" width="9.26" height="0.78" style="fill:#dbdbdb"></rect><rect x="392.83" y="110.07" width="0.78" height="7.31" style="fill:#dbdbdb"></rect><rect x="391.26" y="113.33" width="7.34" height="0.78" transform="matrix(0.08, -1, 1, 0.08, 250.24, 498.38)" style="fill:#dbdbdb"></rect><rect x="393.04" y="113.33" width="7.44" height="0.78" transform="translate(213.16 483.37) rotate(-79.58)" style="fill:#dbdbdb"></rect><rect x="391.16" y="110.05" width="0.78" height="7.34" transform="translate(-7.83 31.64) rotate(-4.58)" style="fill:#dbdbdb"></rect><rect x="389.33" y="110" width="0.78" height="7.44" transform="translate(-14.14 72.37) rotate(-10.42)" style="fill:#dbdbdb"></rect><path d="M396.7,120.33a1.24,1.24,0,1,1,1.24-1.24A1.23,1.23,0,0,1,396.7,120.33Zm0-1.7a.47.47,0,1,0,.47.46A.47.47,0,0,0,396.7,118.63Z" style="fill:#dbdbdb"></path><path d="M389.74,120.33a1.24,1.24,0,1,1,1.24-1.24A1.24,1.24,0,0,1,389.74,120.33Zm0-1.7a.47.47,0,1,0,.46.46A.47.47,0,0,0,389.74,118.63Z" style="fill:#dbdbdb"></path><circle cx="399.55" cy="107.64" r="3.31" style="fill:#37474F"></circle><path d="M400,105.74v3.66a.35.35,0,0,1-.35.34.34.34,0,0,1-.34-.34v-3.05l-.25.14a.28.28,0,0,1-.17.05.32.32,0,0,1-.29-.17.33.33,0,0,1,.11-.47l.76-.45h0s0,0,0,0h.2l0,0h0l0,0,0,0s0,0,0,0l0,0,0,0,0,0v0h0s0,0,0,0a0,0,0,0,0,0,0s0,0,0,0,0,0,0,0Z" style="fill:#fff"></path><rect x="268.44" y="283.65" width="82.41" height="2.33" style="fill:#dbdbdb"></rect><rect x="268.44" y="288" width="70.88" height="2.33" style="fill:#dbdbdb"></rect><polygon points="260.17 213.15 256.86 210.05 260.17 206.95 260.69 207.49 257.96 210.05 260.69 212.6 260.17 213.15" style="fill:#c7c7c7"></polygon><path d="M259.5,215.57a5.53,5.53,0,1,1,5.53-5.52A5.53,5.53,0,0,1,259.5,215.57Zm0-10a4.53,4.53,0,1,0,4.53,4.53A4.53,4.53,0,0,0,259.5,205.52Z" style="fill:#c7c7c7"></path><polygon points="407.82 213.15 407.3 212.6 410.03 210.05 407.3 207.49 407.82 206.95 411.13 210.05 407.82 213.15" style="fill:#c7c7c7"></polygon><path d="M408.49,215.57a5.53,5.53,0,1,1,5.52-5.52A5.53,5.53,0,0,1,408.49,215.57Zm0-10a4.53,4.53,0,1,0,4.52,4.53A4.53,4.53,0,0,0,408.49,205.52Z" style="fill:#c7c7c7"></path><path d="M273.64,343.35a.31.31,0,0,1,.3.3v.5a4,4,0,0,1,2.21.87.33.33,0,0,1,.17.28.32.32,0,0,1-.32.31.28.28,0,0,1-.22-.09,3.55,3.55,0,0,0-1.86-.8v3.48c1.88.39,2.68,1.1,2.68,2.32a2.46,2.46,0,0,1-2.66,2.3v1a.3.3,0,0,1-.6,0v-1a4.61,4.61,0,0,1-2.79-1.2.31.31,0,0,1,.17-.57.38.38,0,0,1,.23.08,4,4,0,0,0,2.42,1.13V348.7c-1.87-.41-2.63-1.09-2.63-2.33a2.41,2.41,0,0,1,2.6-2.25v-.47A.31.31,0,0,1,273.64,343.35Zm-.27,4.72v-3.39c-1.21,0-2,.74-2,1.64S271.77,347.69,273.37,348.07Zm.55.76v3.43c1.24,0,2-.75,2-1.69S275.53,349.19,273.92,348.83Z"></path><path d="M278.17,352.28l4.07-3.66A2.29,2.29,0,0,0,283,347a2.23,2.23,0,0,0-2.23-2.22,2.3,2.3,0,0,0-1.52.57l-.42.39a.28.28,0,0,1-.42,0,.27.27,0,0,1,0-.42l.42-.4a2.94,2.94,0,0,1,1.93-.73,2.86,2.86,0,0,1,2.83,2.83,2.86,2.86,0,0,1-.93,2.11l-3.48,3.15h4.11a.3.3,0,0,1,.3.31.31.31,0,0,1-.3.3h-4.89a.3.3,0,0,1-.23-.09A.34.34,0,0,1,278.17,352.28Z"></path><path d="M285.64,348.47a5.6,5.6,0,0,1,.83-3.05,2.47,2.47,0,0,1,4.35,0,5.69,5.69,0,0,1,.84,3.05,5.59,5.59,0,0,1-.84,3,2.45,2.45,0,0,1-4.35,0A5.5,5.5,0,0,1,285.64,348.47Zm.61,0a4.88,4.88,0,0,0,.73,2.69,1.85,1.85,0,0,0,3.33,0,5.28,5.28,0,0,0,0-5.39,1.85,1.85,0,0,0-3.33,0A4.92,4.92,0,0,0,286.25,348.47Z"></path><path d="M295,351.57a.63.63,0,1,1-.62.62A.62.62,0,0,1,295,351.57Z"></path><path d="M296.82,348.47a5.51,5.51,0,0,1,.83-3.05,2.72,2.72,0,0,1,2.17-1.3,2.75,2.75,0,0,1,2.18,1.3,5.69,5.69,0,0,1,.84,3.05,5.59,5.59,0,0,1-.84,3,2.72,2.72,0,0,1-2.18,1.32,2.69,2.69,0,0,1-2.17-1.32A5.42,5.42,0,0,1,296.82,348.47Zm.6,0a4.88,4.88,0,0,0,.74,2.69,2.08,2.08,0,0,0,1.66,1,2.12,2.12,0,0,0,1.67-1,5.28,5.28,0,0,0,0-5.39,2.06,2.06,0,0,0-1.67-1,2,2,0,0,0-1.66,1A4.92,4.92,0,0,0,297.42,348.47Z"></path><path d="M305.63,348.47a5.52,5.52,0,0,1,.84-3.05,2.46,2.46,0,0,1,4.34,0,5.6,5.6,0,0,1,.85,3.05,5.51,5.51,0,0,1-.85,3,2.44,2.44,0,0,1-4.34,0A5.43,5.43,0,0,1,305.63,348.47Zm.61,0a4.88,4.88,0,0,0,.74,2.69,2.08,2.08,0,0,0,1.66,1,2.11,2.11,0,0,0,1.66-1,5.22,5.22,0,0,0,0-5.39,2,2,0,0,0-1.66-1,2,2,0,0,0-1.66,1A4.92,4.92,0,0,0,306.24,348.47Z"></path><path d="M273.78,134.91l-1.86,2.58a.19.19,0,0,1-.17.09h0a.19.19,0,0,1-.18-.09l-1.85-2.57v4.77a.2.2,0,0,1-.2.19.2.2,0,0,1-.21-.19v-5.37a.18.18,0,0,1,.08-.16l0,0a.22.22,0,0,1,.28.05l2.07,2.86,2.05-2.86a.22.22,0,0,1,.28-.05l.06.07a.2.2,0,0,1,0,.11v5.37a.2.2,0,0,1-.19.19.19.19,0,0,1-.2-.19Z"></path><path d="M277.93,135.82a2,2,0,1,1-1.92,2A2,2,0,0,1,277.93,135.82Zm0,3.67a1.64,1.64,0,1,0-1.52-1.64A1.59,1.59,0,0,0,277.93,139.49Z"></path><path d="M284.62,139.1a1.92,1.92,0,0,1-1.56.78,2,2,0,0,1,0-4.06,1.94,1.94,0,0,1,1.56.8v-2.34a.2.2,0,0,1,.21-.19.2.2,0,0,1,.2.19v5.41a.2.2,0,0,1-.2.19.2.2,0,0,1-.21-.19Zm0-1.17v-.13a1.62,1.62,0,1,0,0,.13Z"></path><path d="M286.42,137.86a2,2,0,0,1,2-2,2,2,0,0,1,2,1.89h0v0a.19.19,0,0,1-.2.18h-3.33a1.6,1.6,0,0,0,1.58,1.56,1.53,1.53,0,0,0,1.31-.74.19.19,0,0,1,.26-.07.21.21,0,0,1,.07.28,1.94,1.94,0,0,1-1.64.92A2,2,0,0,1,286.42,137.86Zm.43-.32h3.07a1.55,1.55,0,0,0-3.07,0Z"></path><path d="M291.58,136a.2.2,0,0,1,.21-.2.2.2,0,0,1,.19.2v.9a.33.33,0,0,1,.06-.1,2,2,0,0,1,1.62-1,.2.2,0,0,1,0,.4,1.46,1.46,0,0,0-1.17.66,3.55,3.55,0,0,0-.49,1,.1.1,0,0,0,0,.06v1.79a.19.19,0,0,1-.19.19.2.2,0,0,1-.21-.19Z"></path><path d="M298.12,137.48a1.25,1.25,0,0,0-1.25-1.25,1.27,1.27,0,0,0-1.26,1.25v2.24a.25.25,0,0,1,0,.09.19.19,0,0,1-.15.07h-.05a.21.21,0,0,1-.14-.1v0h0V136a.19.19,0,0,1,.2-.2.2.2,0,0,1,.19.2v.39a1.63,1.63,0,0,1,1.26-.59,1.66,1.66,0,0,1,1.65,1.65v2.21a.2.2,0,0,1-.2.19.19.19,0,0,1-.2-.19Z"></path><path d="M306.26,137.18h-3v2.51a.2.2,0,0,1-.4,0v-5.41a.2.2,0,0,1,.4,0v2.51h3v-2.51a.2.2,0,0,1,.4,0v5.41a.2.2,0,0,1-.4,0Z"></path><path d="M312.05,136v3.67a.2.2,0,0,1-.2.19.2.2,0,0,1-.19-.19v-.61a1.91,1.91,0,0,1-1.53.8,2,2,0,0,1,0-4.06,1.91,1.91,0,0,1,1.53.8V136a.2.2,0,1,1,.39,0Zm-.39,1.83a1.53,1.53,0,1,0-1.53,1.64A1.59,1.59,0,0,0,311.66,137.85Z"></path><path d="M316.59,137.48a1.24,1.24,0,0,0-1.25-1.25,1.27,1.27,0,0,0-1.26,1.25v2.24a.25.25,0,0,1,0,.09.18.18,0,0,1-.15.07h-.05a.17.17,0,0,1-.13-.1,0,0,0,0,1,0,0h0V136a.19.19,0,0,1,.2-.2.19.19,0,0,1,.19.2v.39a1.63,1.63,0,0,1,1.26-.59,1.66,1.66,0,0,1,1.65,1.65v2.21a.2.2,0,0,1-.4,0Z"></path><path d="M321.85,139.1a1.93,1.93,0,0,1-1.56.78,2,2,0,0,1,0-4.06,2,2,0,0,1,1.56.8v-2.34a.2.2,0,0,1,.21-.19.2.2,0,0,1,.19.19v5.41a.2.2,0,0,1-.19.19.2.2,0,0,1-.21-.19Zm0-1.17v-.13a1.62,1.62,0,1,0,0,.13Z"></path><path d="M324.06,138v-3.67a.21.21,0,0,1,.2-.19.2.2,0,0,1,.21.19v2.34a2,2,0,0,1,1.56-.8,2,2,0,0,1,0,4.06,1.93,1.93,0,0,1-1.56-.78v.59a.2.2,0,0,1-.21.19.21.21,0,0,1-.2-.19Zm.41-.09a1.6,1.6,0,1,0,0-.06Z"></path><path d="M332.93,136v3.67a.2.2,0,0,1-.19.19.2.2,0,0,1-.2-.19v-.61a1.91,1.91,0,0,1-1.53.8,2,2,0,0,1,0-4.06,1.91,1.91,0,0,1,1.53.8V136a.2.2,0,1,1,.39,0Zm-.39,1.83a1.53,1.53,0,1,0-1.53,1.64A1.59,1.59,0,0,0,332.54,137.85Z"></path><path d="M338.49,139.56a1.91,1.91,0,0,1-1.91,1.91,2.24,2.24,0,0,1-.85-.19.22.22,0,0,1-.08-.27.18.18,0,0,1,.26-.09,1.52,1.52,0,0,0,2.18-1.36v-.5a1.83,1.83,0,0,1-1.51.8,2,2,0,0,1,0-4,1.86,1.86,0,0,1,1.51.8V136a.21.21,0,0,1,.21-.2.21.21,0,0,1,.19.2Zm-.4-1.72a1.51,1.51,0,1,0-1.51,1.63A1.57,1.57,0,0,0,338.09,137.84Z"></path><path d="M272.06,297.19a3.06,3.06,0,0,1,1.87.64.21.21,0,0,1,0,.29.19.19,0,0,1-.28,0,2.66,2.66,0,0,0-1.63-.56,2.54,2.54,0,1,0,0,5.07,2.45,2.45,0,0,0,1.61-.57.21.21,0,0,1,.29,0,.2.2,0,0,1,0,.29,3.05,3.05,0,0,1-1.87.63,2.94,2.94,0,1,1,0-5.88Z"></path><path d="M277.24,299a2,2,0,1,1-1.92,2A2,2,0,0,1,277.24,299Zm0,3.66a1.64,1.64,0,1,0-1.52-1.63A1.59,1.59,0,0,0,277.24,302.67Z"></path><path d="M280.74,297.47a.21.21,0,0,1,.2-.2.2.2,0,0,1,.21.2v5.4a.2.2,0,0,1-.21.2.21.21,0,0,1-.2-.2Z"></path><path d="M284.48,299a2,2,0,1,1-1.92,2A2,2,0,0,1,284.48,299Zm0,3.66A1.64,1.64,0,1,0,283,301,1.58,1.58,0,0,0,284.48,302.67Z"></path><path d="M287.76,299.22a.19.19,0,0,1,.2-.2.2.2,0,0,1,.2.2v.89a.93.93,0,0,1,0-.1,2,2,0,0,1,1.63-1,.19.19,0,0,1,.2.2.2.2,0,0,1-.2.2,1.48,1.48,0,0,0-1.18.66,3.88,3.88,0,0,0-.49.95.18.18,0,0,0,0,.06v1.78a.2.2,0,0,1-.2.2.19.19,0,0,1-.2-.2Z"></path><rect x="278.98" y="365.84" width="110.03" height="23.17" style="fill:#37474F"></rect><path d="M297.79,380.17h-3l-.6,1.62a.71.71,0,0,1-.65.43.64.64,0,0,1-.24,0,.7.7,0,0,1-.41-.89l2.75-7.32a.69.69,0,0,1,.66-.43.7.7,0,0,1,.66.43l2.74,7.32a.7.7,0,0,1-.41.89.57.57,0,0,1-.24,0,.67.67,0,0,1-.63-.43Zm-.51-1.37-1-2.67-1,2.67Z" style="fill:#fff"></path><path d="M301.38,381.54v-7.33a.67.67,0,0,1,.68-.68h1.47a4.35,4.35,0,0,1,0,8.69h-1.47A.68.68,0,0,1,301.38,381.54Zm1.38-.7h.77a3,3,0,0,0,0-5.94h-.77Z" style="fill:#fff"></path><path d="M309.94,381.54v-7.33a.67.67,0,0,1,.68-.68h1.47a4.35,4.35,0,0,1,0,8.69h-1.47A.68.68,0,0,1,309.94,381.54Zm1.38-.7h.77a3,3,0,0,0,0-5.94h-.77Z" style="fill:#fff"></path><path d="M327.91,374.9h-2v6.64a.69.69,0,0,1-1.37,0V374.9h-2a.69.69,0,0,1-.69-.69.67.67,0,0,1,.69-.68h5.3a.67.67,0,0,1,.68.68A.7.7,0,0,1,327.91,374.9Z" style="fill:#fff"></path><path d="M336.81,374.61a4.54,4.54,0,0,1,0,6.28,4,4,0,0,1-3,1.33,4.19,4.19,0,0,1-3.05-1.33,4.62,4.62,0,0,1,0-6.28,4.15,4.15,0,0,1,3.05-1.33A4,4,0,0,1,336.81,374.61Zm-.16,3.14a3.22,3.22,0,0,0-.84-2.18,2.71,2.71,0,0,0-2-.88,2.76,2.76,0,0,0-2,.88,3.18,3.18,0,0,0-.84,2.18,3.11,3.11,0,0,0,.84,2.16,2.73,2.73,0,0,0,2,.89,2.68,2.68,0,0,0,2-.89A3.15,3.15,0,0,0,336.65,377.75Z" style="fill:#fff"></path><path d="M343.86,377.75a4.55,4.55,0,0,1,4.56-4.47,4.61,4.61,0,0,1,2.86,1,.71.71,0,0,1-.86,1.13,3.09,3.09,0,0,0-2-.69,3.27,3.27,0,0,0-2.24.9,3,3,0,0,0,0,4.32,3.27,3.27,0,0,0,2.24.89,3.1,3.1,0,0,0,2-.68.75.75,0,0,1,1,.14.73.73,0,0,1-.13,1,4.61,4.61,0,0,1-2.86,1A4.54,4.54,0,0,1,343.86,377.75Z" style="fill:#fff"></path><path d="M358.06,380.17h-3l-.61,1.62a.69.69,0,0,1-.65.43.59.59,0,0,1-.23,0,.69.69,0,0,1-.41-.89l2.74-7.32a.7.7,0,0,1,.66-.43.69.69,0,0,1,.66.43l2.74,7.32a.69.69,0,0,1-.41.89.56.56,0,0,1-.23,0,.67.67,0,0,1-.64-.43Zm-.5-1.37-1-2.67-1,2.67Z" style="fill:#fff"></path><path d="M367.41,381.19a.7.7,0,0,1-.44.87,1.19,1.19,0,0,1-.27,0h0a.91.91,0,0,1-.48-.14,1.22,1.22,0,0,1-.4-.44,3.37,3.37,0,0,1-.26-1.49,1,1,0,0,0-.15-.53,1.07,1.07,0,0,0-.37-.36,2.56,2.56,0,0,0-.7-.3h-1.46v2.7a.69.69,0,0,1-.7.68.68.68,0,0,1-.68-.68v-7.33a.67.67,0,0,1,.68-.68h2.23A2.65,2.65,0,0,1,367,376.2a2.62,2.62,0,0,1-1,2,2.1,2.1,0,0,1,.43.46,2.34,2.34,0,0,1,.41,1.34,3.68,3.68,0,0,0,.05.74A.68.68,0,0,1,367.41,381.19Zm-1.74-5a1.29,1.29,0,0,0-1.28-1.3h-1.53v2.56h1.53A1.28,1.28,0,0,0,365.67,376.2Z" style="fill:#fff"></path><path d="M374.48,374.9h-2v6.64a.67.67,0,0,1-.68.68.68.68,0,0,1-.69-.68V374.9h-2a.69.69,0,0,1-.68-.69.67.67,0,0,1,.68-.68h5.3a.68.68,0,0,1,.69.68A.7.7,0,0,1,374.48,374.9Z" style="fill:#fff"></path><rect x="268.44" y="144.5" width="131.1" height="131.1" style="fill:#ebebeb"></rect><ellipse cx="333.99" cy="260.91" rx="53.92" ry="7.49" style="fill:#dbdbdb"></ellipse><path d="M366.72,260.45H301.26c-17.69,0-14.85-14.15-10.6-29s10.52-37.37,26.34-37.37h34c15.81,0,22.1,22.51,26.34,37.37S384.42,260.45,366.72,260.45Z" style="fill:#37474F"></path><g style="opacity:0.1"><path d="M315.14,194.8a.68.68,0,1,1-.67-.68A.68.68,0,0,1,315.14,194.8Z"></path><path d="M326.3,194.8a.68.68,0,1,1-.67-.68A.68.68,0,0,1,326.3,194.8Z"></path><path d="M337.46,194.8a.68.68,0,1,1-.68-.68A.68.68,0,0,1,337.46,194.8Z"></path><path d="M348.62,194.8a.69.69,0,0,1-.68.68.68.68,0,0,1,0-1.36A.69.69,0,0,1,348.62,194.8Z"></path><path d="M304,209.14a.68.68,0,1,1-.68-.67A.68.68,0,0,1,304,209.14Z"></path><circle cx="314.47" cy="209.14" r="0.68"></circle><path d="M326.3,209.14a.68.68,0,1,1-.67-.67A.67.67,0,0,1,326.3,209.14Z"></path><path d="M337.46,209.14a.68.68,0,1,1-.68-.67A.67.67,0,0,1,337.46,209.14Z"></path><path d="M348.62,209.14a.68.68,0,0,1-.68.68.68.68,0,1,1,.68-.68Z"></path><path d="M359.78,209.14a.68.68,0,1,1-.68-.67A.68.68,0,0,1,359.78,209.14Z"></path><path d="M309.57,201.79a.68.68,0,1,1-.68-.68A.68.68,0,0,1,309.57,201.79Z"></path><path d="M320.72,201.79a.68.68,0,1,1-.67-.68A.67.67,0,0,1,320.72,201.79Z"></path><path d="M331.88,201.79a.68.68,0,1,1-.68-.68A.67.67,0,0,1,331.88,201.79Z"></path><path d="M343,201.79a.68.68,0,1,1-.68-.68A.67.67,0,0,1,343,201.79Z"></path><path d="M354.2,201.79a.68.68,0,1,1-.68-.68A.68.68,0,0,1,354.2,201.79Z"></path><path d="M365.26,202.12a.65.65,0,0,1-.58.35.67.67,0,0,1-.68-.68.68.68,0,0,1,.47-.65C364.74,201.46,365,201.78,365.26,202.12Z"></path><path d="M304,223.48a.68.68,0,1,1-.68-.67A.68.68,0,0,1,304,223.48Z"></path><circle cx="314.47" cy="223.48" r="0.68"></circle><path d="M326.3,223.48a.68.68,0,1,1-.67-.67A.67.67,0,0,1,326.3,223.48Z"></path><path d="M337.46,223.48a.68.68,0,1,1-.68-.67A.67.67,0,0,1,337.46,223.48Z"></path><path d="M348.62,223.48a.68.68,0,0,1-.68.68.68.68,0,1,1,.68-.68Z"></path><path d="M359.78,223.48a.68.68,0,1,1-.68-.67A.68.68,0,0,1,359.78,223.48Z"></path><circle cx="370.26" cy="223.48" r="0.68"></circle><path d="M298.41,216.13a.68.68,0,1,1-.68-.68A.68.68,0,0,1,298.41,216.13Z"></path><path d="M309.57,216.13a.68.68,0,1,1-.68-.68A.69.69,0,0,1,309.57,216.13Z"></path><path d="M320.72,216.13a.68.68,0,1,1-.67-.68A.68.68,0,0,1,320.72,216.13Z"></path><path d="M331.88,216.13a.68.68,0,1,1-.68-.68A.68.68,0,0,1,331.88,216.13Z"></path><path d="M343,216.13a.68.68,0,1,1-.68-.68A.68.68,0,0,1,343,216.13Z"></path><path d="M354.2,216.13a.68.68,0,1,1-.68-.68A.69.69,0,0,1,354.2,216.13Z"></path><path d="M365.35,216.13a.68.68,0,1,1-.67-.68A.68.68,0,0,1,365.35,216.13Z"></path><path d="M292.83,237.82a.68.68,0,1,1-.68-.67A.67.67,0,0,1,292.83,237.82Z"></path><path d="M304,237.82a.68.68,0,1,1-.68-.67A.68.68,0,0,1,304,237.82Z"></path><circle cx="314.47" cy="237.82" r="0.68"></circle><path d="M326.3,237.82a.68.68,0,1,1-.67-.67A.67.67,0,0,1,326.3,237.82Z"></path><path d="M337.46,237.82a.68.68,0,1,1-.68-.67A.67.67,0,0,1,337.46,237.82Z"></path><path d="M348.62,237.82a.68.68,0,0,1-.68.68.68.68,0,1,1,.68-.68Z"></path><path d="M359.78,237.82a.68.68,0,1,1-.68-.67A.68.68,0,0,1,359.78,237.82Z"></path><circle cx="370.26" cy="237.82" r="0.68"></circle><path d="M298.41,230.47a.68.68,0,1,1-.68-.68A.68.68,0,0,1,298.41,230.47Z"></path><path d="M309.57,230.47a.68.68,0,1,1-.68-.68A.69.69,0,0,1,309.57,230.47Z"></path><path d="M320.72,230.47a.68.68,0,1,1-.67-.68A.68.68,0,0,1,320.72,230.47Z"></path><path d="M331.88,230.47a.68.68,0,1,1-.68-.68A.68.68,0,0,1,331.88,230.47Z"></path><path d="M343,230.47a.68.68,0,1,1-.68-.68A.68.68,0,0,1,343,230.47Z"></path><path d="M354.2,230.47a.68.68,0,1,1-.68-.68A.69.69,0,0,1,354.2,230.47Z"></path><path d="M365.35,230.47a.68.68,0,1,1-.67-.68A.68.68,0,0,1,365.35,230.47Z"></path><path d="M376.51,230.47a.68.68,0,1,1-.67-.68A.68.68,0,0,1,376.51,230.47Z"></path><path d="M292.83,252.17a.68.68,0,1,1-.68-.68A.67.67,0,0,1,292.83,252.17Z"></path><path d="M304,252.17a.68.68,0,1,1-.68-.68A.68.68,0,0,1,304,252.17Z"></path><circle cx="314.47" cy="252.17" r="0.68"></circle><path d="M326.3,252.17a.68.68,0,1,1-.67-.68A.67.67,0,0,1,326.3,252.17Z"></path><path d="M337.46,252.17a.68.68,0,1,1-.68-.68A.67.67,0,0,1,337.46,252.17Z"></path><path d="M348.62,252.17a.68.68,0,0,1-.68.67.68.68,0,0,1,0-1.35A.68.68,0,0,1,348.62,252.17Z"></path><path d="M359.78,252.17a.68.68,0,1,1-.68-.68A.68.68,0,0,1,359.78,252.17Z"></path><circle cx="370.26" cy="252.17" r="0.68"></circle><path d="M298.41,244.81a.68.68,0,1,1-.68-.67A.67.67,0,0,1,298.41,244.81Z"></path><path d="M309.57,244.81a.68.68,0,1,1-.68-.67A.68.68,0,0,1,309.57,244.81Z"></path><path d="M320.72,244.81a.68.68,0,1,1-.67-.67A.67.67,0,0,1,320.72,244.81Z"></path><path d="M331.88,244.81a.68.68,0,1,1-.68-.67A.67.67,0,0,1,331.88,244.81Z"></path><path d="M343,244.81a.68.68,0,1,1-.68-.67A.67.67,0,0,1,343,244.81Z"></path><path d="M354.2,244.81a.68.68,0,1,1-.68-.67A.68.68,0,0,1,354.2,244.81Z"></path><path d="M365.35,244.81a.68.68,0,1,1-.67-.67A.67.67,0,0,1,365.35,244.81Z"></path><path d="M376.51,244.81a.68.68,0,1,1-.67-.67A.67.67,0,0,1,376.51,244.81Z"></path><circle cx="297.73" cy="259.15" r="0.68"></circle><path d="M309.57,259.15a.68.68,0,1,1-.68-.67A.68.68,0,0,1,309.57,259.15Z"></path><path d="M320.72,259.15a.68.68,0,1,1-.67-.67A.67.67,0,0,1,320.72,259.15Z"></path><path d="M331.88,259.15a.68.68,0,1,1-.68-.67A.67.67,0,0,1,331.88,259.15Z"></path><circle cx="342.36" cy="259.15" r="0.68"></circle><circle cx="353.52" cy="259.15" r="0.68"></circle><path d="M365.35,259.15a.68.68,0,1,1-.67-.67A.67.67,0,0,1,365.35,259.15Z"></path><path d="M375.7,258.49a2.6,2.6,0,0,1-.36.21A.63.63,0,0,1,375.7,258.49Z"></path></g><circle cx="315.9" cy="201.9" r="5.42" style="opacity:0.1"></circle><circle cx="352.08" cy="201.9" r="5.42" style="opacity:0.1"></circle><circle cx="315.9" cy="201.9" r="3.68" style="fill:#263238"></circle><circle cx="352.08" cy="201.9" r="3.68" style="fill:#263238"></circle><path d="M352.08,202.69a2.07,2.07,0,0,1-2.07-2.07,103.05,103.05,0,0,0-3.09-19.5c-2.08-7.75-5.93-17-12.44-17-12,0-16.51,30.31-16.51,36.5a2.07,2.07,0,1,1-4.14,0c0-.4,2.52-40.64,20.65-40.64,17.59,0,19.67,40.24,19.67,40.64A2.06,2.06,0,0,1,352.08,202.69Z" style="fill:#37474F"></path><rect x="268.44" y="308.78" width="23.36" height="23.36" style="fill:#ebebeb"></rect><path d="M286,329.45H274.29c-3.15,0-2.65-2.52-1.89-5.17s1.88-6.66,4.69-6.66h6.06c2.82,0,3.94,4,4.7,6.66S289.11,329.45,286,329.45Z" style="fill:#455a64"></path><g style="opacity:0.1"><path d="M276.76,317.75a.12.12,0,0,1-.12.12.13.13,0,0,1-.12-.12.12.12,0,0,1,.12-.12A.12.12,0,0,1,276.76,317.75Z"></path><path d="M278.75,317.75a.12.12,0,0,1-.24,0,.12.12,0,0,1,.24,0Z"></path><path d="M280.74,317.75a.12.12,0,0,1-.24,0,.12.12,0,0,1,.24,0Z"></path><path d="M282.73,317.75a.13.13,0,0,1-.12.12.12.12,0,0,1-.12-.12.12.12,0,0,1,.12-.12A.12.12,0,0,1,282.73,317.75Z"></path><path d="M274.77,320.3a.12.12,0,0,1-.12.12.12.12,0,0,1-.12-.12.13.13,0,0,1,.12-.12A.12.12,0,0,1,274.77,320.3Z"></path><path d="M276.76,320.3a.12.12,0,0,1-.12.12.12.12,0,0,1-.12-.12.13.13,0,0,1,.12-.12A.12.12,0,0,1,276.76,320.3Z"></path><path d="M278.75,320.3a.12.12,0,1,1-.24,0,.12.12,0,0,1,.24,0Z"></path><path d="M280.74,320.3a.12.12,0,1,1-.24,0,.12.12,0,0,1,.24,0Z"></path><path d="M282.73,320.3a.12.12,0,0,1-.12.12.12.12,0,0,1-.12-.12.12.12,0,0,1,.12-.12A.13.13,0,0,1,282.73,320.3Z"></path><path d="M284.72,320.3a.12.12,0,0,1-.12.12.12.12,0,0,1-.12-.12.12.12,0,0,1,.12-.12A.13.13,0,0,1,284.72,320.3Z"></path><circle cx="275.65" cy="318.99" r="0.12"></circle><circle cx="277.64" cy="318.99" r="0.12"></circle><circle cx="279.63" cy="318.99" r="0.12"></circle><path d="M281.73,319a.12.12,0,0,1-.12.12.12.12,0,0,1-.12-.12.13.13,0,0,1,.12-.12A.12.12,0,0,1,281.73,319Z"></path><path d="M283.72,319a.12.12,0,0,1-.12.12.12.12,0,0,1-.12-.12.13.13,0,0,1,.12-.12A.12.12,0,0,1,283.72,319Z"></path><path d="M285.69,319.05a.09.09,0,0,1-.1.06.12.12,0,0,1-.12-.12.12.12,0,0,1,.08-.11A1.15,1.15,0,0,1,285.69,319.05Z"></path><path d="M274.77,322.86a.12.12,0,0,1-.12.12.12.12,0,0,1,0-.24A.12.12,0,0,1,274.77,322.86Z"></path><path d="M276.76,322.86a.12.12,0,0,1-.12.12.12.12,0,0,1,0-.24A.12.12,0,0,1,276.76,322.86Z"></path><path d="M278.75,322.86a.12.12,0,1,1-.12-.12A.12.12,0,0,1,278.75,322.86Z"></path><path d="M280.74,322.86a.12.12,0,1,1-.12-.12A.12.12,0,0,1,280.74,322.86Z"></path><path d="M282.73,322.86a.12.12,0,0,1-.12.12.12.12,0,0,1,0-.24A.12.12,0,0,1,282.73,322.86Z"></path><path d="M284.72,322.86a.12.12,0,0,1-.12.12.12.12,0,0,1,0-.24A.12.12,0,0,1,284.72,322.86Z"></path><path d="M286.71,322.86a.12.12,0,0,1-.12.12.12.12,0,1,1,0-.24A.12.12,0,0,1,286.71,322.86Z"></path><circle cx="273.66" cy="321.55" r="0.12"></circle><circle cx="275.65" cy="321.55" r="0.12"></circle><circle cx="277.64" cy="321.55" r="0.12"></circle><circle cx="279.63" cy="321.55" r="0.12"></circle><path d="M281.73,321.55a.12.12,0,0,1-.12.12.12.12,0,0,1,0-.24A.12.12,0,0,1,281.73,321.55Z"></path><path d="M283.72,321.55a.12.12,0,0,1-.12.12.12.12,0,0,1,0-.24A.12.12,0,0,1,283.72,321.55Z"></path><path d="M285.71,321.55a.12.12,0,1,1-.12-.12A.12.12,0,0,1,285.71,321.55Z"></path><path d="M272.79,325.42a.13.13,0,0,1-.12.12.12.12,0,0,1-.12-.12.12.12,0,0,1,.12-.13A.13.13,0,0,1,272.79,325.42Z"></path><path d="M274.77,325.42a.12.12,0,0,1-.12.12.13.13,0,0,1-.12-.12.13.13,0,0,1,.12-.13A.12.12,0,0,1,274.77,325.42Z"></path><path d="M276.76,325.42a.12.12,0,0,1-.12.12.13.13,0,0,1-.12-.12.13.13,0,0,1,.12-.13A.12.12,0,0,1,276.76,325.42Z"></path><path d="M278.75,325.42a.12.12,0,0,1-.24,0,.12.12,0,1,1,.24,0Z"></path><path d="M280.74,325.42a.12.12,0,0,1-.24,0,.12.12,0,1,1,.24,0Z"></path><path d="M282.73,325.42a.13.13,0,0,1-.12.12.12.12,0,0,1-.12-.12.12.12,0,0,1,.12-.13A.13.13,0,0,1,282.73,325.42Z"></path><path d="M284.72,325.42a.13.13,0,0,1-.12.12.12.12,0,0,1-.12-.12.12.12,0,0,1,.12-.13A.13.13,0,0,1,284.72,325.42Z"></path><path d="M286.71,325.42a.13.13,0,0,1-.12.12.13.13,0,0,1-.13-.12.13.13,0,0,1,.13-.13A.13.13,0,0,1,286.71,325.42Z"></path><circle cx="273.66" cy="324.1" r="0.12"></circle><circle cx="275.65" cy="324.1" r="0.12"></circle><circle cx="277.64" cy="324.1" r="0.12"></circle><circle cx="279.63" cy="324.1" r="0.12"></circle><path d="M281.73,324.1a.12.12,0,0,1-.12.13.13.13,0,0,1-.12-.13.13.13,0,0,1,.12-.12A.12.12,0,0,1,281.73,324.1Z"></path><path d="M283.72,324.1a.12.12,0,0,1-.12.13.13.13,0,0,1-.12-.13.13.13,0,0,1,.12-.12A.12.12,0,0,1,283.72,324.1Z"></path><path d="M285.71,324.1a.12.12,0,1,1-.24,0,.12.12,0,1,1,.24,0Z"></path><path d="M287.7,324.1a.12.12,0,1,1-.24,0,.12.12,0,0,1,.24,0Z"></path><circle cx="272.67" cy="327.97" r="0.12"></circle><circle cx="274.65" cy="327.97" r="0.12"></circle><path d="M276.76,328a.12.12,0,0,1-.12.12.12.12,0,0,1,0-.24A.12.12,0,0,1,276.76,328Z"></path><path d="M278.75,328a.12.12,0,1,1-.12-.12A.12.12,0,0,1,278.75,328Z"></path><circle cx="280.62" cy="327.97" r="0.12"></circle><circle cx="282.61" cy="327.97" r="0.12"></circle><circle cx="284.6" cy="327.97" r="0.12"></circle><circle cx="286.59" cy="327.97" r="0.12"></circle><circle cx="273.66" cy="326.66" r="0.12"></circle><circle cx="275.65" cy="326.66" r="0.12"></circle><circle cx="277.64" cy="326.66" r="0.12"></circle><circle cx="279.63" cy="326.66" r="0.12"></circle><path d="M281.73,326.66a.12.12,0,0,1-.12.12.12.12,0,0,1,0-.24A.12.12,0,0,1,281.73,326.66Z"></path><path d="M283.72,326.66a.12.12,0,0,1-.12.12.12.12,0,0,1,0-.24A.12.12,0,0,1,283.72,326.66Z"></path><path d="M285.71,326.66a.12.12,0,1,1-.12-.12A.12.12,0,0,1,285.71,326.66Z"></path><path d="M287.7,326.66a.12.12,0,1,1-.12-.12A.12.12,0,0,1,287.7,326.66Z"></path><circle cx="273.66" cy="329.22" r="0.12"></circle><circle cx="275.65" cy="329.22" r="0.12"></circle><circle cx="277.64" cy="329.22" r="0.12"></circle><circle cx="279.63" cy="329.22" r="0.12"></circle><path d="M281.73,329.22a.12.12,0,0,1-.12.12.13.13,0,0,1-.12-.12.12.12,0,0,1,.12-.12A.12.12,0,0,1,281.73,329.22Z"></path><path d="M283.72,329.22a.12.12,0,0,1-.12.12.13.13,0,0,1-.12-.12.12.12,0,0,1,.12-.12A.12.12,0,0,1,283.72,329.22Z"></path><path d="M285.71,329.22a.12.12,0,1,1-.24,0,.12.12,0,1,1,.24,0Z"></path><path d="M287.56,329.1l-.07,0A.15.15,0,0,1,287.56,329.1Z"></path></g><path d="M277.87,319a1,1,0,1,1-1-1A1,1,0,0,1,277.87,319Z" style="opacity:0.1"></path><path d="M284.31,319a1,1,0,1,1-1-1A1,1,0,0,1,284.31,319Z" style="opacity:0.1"></path><path d="M277.55,319a.66.66,0,0,1-.65.66.67.67,0,0,1-.66-.66.66.66,0,0,1,.66-.65A.65.65,0,0,1,277.55,319Z" style="fill:#263238"></path><circle cx="283.35" cy="319.01" r="0.65" style="fill:#263238"></circle><path d="M283.35,319.15a.36.36,0,0,1-.37-.36,18.78,18.78,0,0,0-.55-3.48c-.37-1.38-1.06-3-2.22-3-2.14,0-2.94,5.4-2.94,6.51a.37.37,0,0,1-.37.36.36.36,0,0,1-.37-.36c0-.08.45-7.25,3.68-7.25s3.51,7.17,3.51,7.25A.37.37,0,0,1,283.35,319.15Z" style="fill:#455a64"></path><rect x="297.31" y="308.78" width="23.36" height="23.36" style="fill:#ebebeb"></rect><path d="M321.17,332.65H296.81V308.28h24.36Zm-23.36-1h22.36V309.28H297.81Z" style="fill:#263238"></path><path d="M314.82,329.45H303.16c-3.16,0-2.65-2.52-1.89-5.17s1.87-6.66,4.69-6.66H312c2.82,0,3.94,4,4.69,6.66S318,329.45,314.82,329.45Z" style="fill:#37474F"></path><g style="opacity:0.1"><path d="M305.63,317.75a.12.12,0,0,1-.24,0,.12.12,0,0,1,.24,0Z"></path><path d="M307.62,317.75a.12.12,0,0,1-.24,0,.12.12,0,0,1,.24,0Z"></path><path d="M309.61,317.75a.13.13,0,0,1-.12.12.12.12,0,0,1-.12-.12.12.12,0,0,1,.12-.12A.12.12,0,0,1,309.61,317.75Z"></path><path d="M311.6,317.75a.13.13,0,0,1-.12.12.13.13,0,0,1-.13-.12.12.12,0,0,1,.13-.12A.12.12,0,0,1,311.6,317.75Z"></path><path d="M303.64,320.3a.12.12,0,0,1-.24,0,.12.12,0,1,1,.24,0Z"></path><path d="M305.63,320.3a.12.12,0,0,1-.24,0,.12.12,0,1,1,.24,0Z"></path><path d="M307.62,320.3a.12.12,0,0,1-.24,0,.12.12,0,1,1,.24,0Z"></path><path d="M309.61,320.3a.12.12,0,0,1-.12.12.12.12,0,0,1-.12-.12.12.12,0,0,1,.12-.12A.13.13,0,0,1,309.61,320.3Z"></path><path d="M311.6,320.3a.12.12,0,0,1-.12.12.12.12,0,0,1-.13-.12.13.13,0,0,1,.13-.12A.13.13,0,0,1,311.6,320.3Z"></path><path d="M313.58,320.3a.12.12,0,0,1-.12.12.12.12,0,0,1-.12-.12.13.13,0,0,1,.12-.12A.12.12,0,0,1,313.58,320.3Z"></path><path d="M304.64,319a.12.12,0,0,1-.12.12.12.12,0,0,1-.12-.12.12.12,0,0,1,.12-.12A.13.13,0,0,1,304.64,319Z"></path><circle cx="306.5" cy="318.99" r="0.12"></circle><circle cx="308.49" cy="318.99" r="0.12"></circle><circle cx="310.48" cy="318.99" r="0.12"></circle><circle cx="312.47" cy="318.99" r="0.12"></circle><path d="M314.56,319.05a.11.11,0,0,1-.1.06.12.12,0,0,1-.12-.12.11.11,0,0,1,.08-.11A1.15,1.15,0,0,1,314.56,319.05Z"></path><path d="M303.64,322.86a.12.12,0,1,1-.12-.12A.12.12,0,0,1,303.64,322.86Z"></path><path d="M305.63,322.86a.12.12,0,1,1-.12-.12A.12.12,0,0,1,305.63,322.86Z"></path><path d="M307.62,322.86a.12.12,0,1,1-.12-.12A.12.12,0,0,1,307.62,322.86Z"></path><path d="M309.61,322.86a.12.12,0,0,1-.12.12.12.12,0,0,1,0-.24A.12.12,0,0,1,309.61,322.86Z"></path><path d="M311.6,322.86a.12.12,0,0,1-.12.12.12.12,0,1,1,0-.24A.12.12,0,0,1,311.6,322.86Z"></path><path d="M313.58,322.86a.12.12,0,0,1-.12.12.12.12,0,1,1,0-.24A.12.12,0,0,1,313.58,322.86Z"></path><path d="M315.57,322.86a.12.12,0,0,1-.12.12.12.12,0,1,1,0-.24A.12.12,0,0,1,315.57,322.86Z"></path><path d="M302.65,321.55a.12.12,0,0,1-.12.12.12.12,0,1,1,0-.24A.12.12,0,0,1,302.65,321.55Z"></path><path d="M304.64,321.55a.12.12,0,0,1-.12.12.12.12,0,0,1,0-.24A.12.12,0,0,1,304.64,321.55Z"></path><circle cx="306.5" cy="321.55" r="0.12"></circle><circle cx="308.49" cy="321.55" r="0.12"></circle><circle cx="310.48" cy="321.55" r="0.12"></circle><circle cx="312.47" cy="321.55" r="0.12"></circle><path d="M314.58,321.55a.12.12,0,0,1-.12.12.12.12,0,0,1,0-.24A.12.12,0,0,1,314.58,321.55Z"></path><path d="M301.65,325.42a.12.12,0,0,1-.12.12.13.13,0,0,1-.12-.12.13.13,0,0,1,.12-.13A.12.12,0,0,1,301.65,325.42Z"></path><path d="M303.64,325.42a.12.12,0,1,1-.24,0,.12.12,0,1,1,.24,0Z"></path><path d="M305.63,325.42a.12.12,0,1,1-.24,0,.12.12,0,1,1,.24,0Z"></path><path d="M307.62,325.42a.12.12,0,1,1-.24,0,.12.12,0,1,1,.24,0Z"></path><path d="M309.61,325.42a.13.13,0,0,1-.12.12.12.12,0,0,1-.12-.12.12.12,0,0,1,.12-.13A.13.13,0,0,1,309.61,325.42Z"></path><path d="M311.6,325.42a.13.13,0,0,1-.12.12.13.13,0,0,1-.13-.12.13.13,0,0,1,.13-.13A.13.13,0,0,1,311.6,325.42Z"></path><path d="M313.58,325.42a.12.12,0,0,1-.12.12.13.13,0,0,1-.12-.12.13.13,0,0,1,.12-.13A.12.12,0,0,1,313.58,325.42Z"></path><path d="M315.57,325.42a.12.12,0,0,1-.12.12.13.13,0,0,1-.12-.12.13.13,0,0,1,.12-.13A.12.12,0,0,1,315.57,325.42Z"></path><path d="M302.65,324.1a.13.13,0,0,1-.12.13.12.12,0,0,1-.12-.13.12.12,0,0,1,.12-.12A.13.13,0,0,1,302.65,324.1Z"></path><path d="M304.64,324.1a.13.13,0,0,1-.12.13.12.12,0,0,1-.12-.13.12.12,0,0,1,.12-.12A.13.13,0,0,1,304.64,324.1Z"></path><circle cx="306.5" cy="324.1" r="0.12"></circle><circle cx="308.49" cy="324.1" r="0.12"></circle><circle cx="310.48" cy="324.1" r="0.12"></circle><circle cx="312.47" cy="324.1" r="0.12"></circle><path d="M314.58,324.1a.13.13,0,0,1-.12.13.12.12,0,0,1-.12-.13.12.12,0,0,1,.12-.12A.13.13,0,0,1,314.58,324.1Z"></path><circle cx="316.45" cy="324.1" r="0.12"></circle><circle cx="301.53" cy="327.97" r="0.12"></circle><circle cx="303.52" cy="327.97" r="0.12"></circle><circle cx="305.51" cy="327.97" r="0.12"></circle><path d="M307.62,328a.12.12,0,1,1-.12-.12A.12.12,0,0,1,307.62,328Z"></path><path d="M309.61,328a.12.12,0,0,1-.12.12.12.12,0,0,1,0-.24A.12.12,0,0,1,309.61,328Z"></path><path d="M311.6,328a.12.12,0,0,1-.12.12.12.12,0,1,1,0-.24A.12.12,0,0,1,311.6,328Z"></path><path d="M313.58,328a.12.12,0,0,1-.12.12.12.12,0,0,1,0-.24A.12.12,0,0,1,313.58,328Z"></path><path d="M315.57,328a.12.12,0,0,1-.12.12.12.12,0,0,1,0-.24A.12.12,0,0,1,315.57,328Z"></path><path d="M302.65,326.66a.12.12,0,0,1-.12.12.12.12,0,1,1,0-.24A.12.12,0,0,1,302.65,326.66Z"></path><path d="M304.64,326.66a.12.12,0,0,1-.12.12.12.12,0,0,1,0-.24A.12.12,0,0,1,304.64,326.66Z"></path><circle cx="306.5" cy="326.66" r="0.12"></circle><circle cx="308.49" cy="326.66" r="0.12"></circle><circle cx="310.48" cy="326.66" r="0.12"></circle><circle cx="312.47" cy="326.66" r="0.12"></circle><path d="M314.58,326.66a.12.12,0,0,1-.12.12.12.12,0,0,1,0-.24A.12.12,0,0,1,314.58,326.66Z"></path><circle cx="316.45" cy="326.66" r="0.12"></circle><path d="M302.65,329.22a.13.13,0,0,1-.12.12.12.12,0,0,1-.12-.12.12.12,0,0,1,.12-.12A.12.12,0,0,1,302.65,329.22Z"></path><path d="M304.64,329.22a.13.13,0,0,1-.12.12.12.12,0,0,1-.12-.12.12.12,0,0,1,.12-.12A.12.12,0,0,1,304.64,329.22Z"></path><circle cx="306.5" cy="329.22" r="0.12"></circle><circle cx="308.49" cy="329.22" r="0.12"></circle><circle cx="310.48" cy="329.22" r="0.12"></circle><circle cx="312.47" cy="329.22" r="0.12"></circle><path d="M314.58,329.22a.13.13,0,0,1-.12.12.12.12,0,0,1-.12-.12.12.12,0,0,1,.12-.12A.12.12,0,0,1,314.58,329.22Z"></path><path d="M316.42,329.1l-.06,0Z"></path></g><path d="M306.73,319a1,1,0,1,1-1-1A1,1,0,0,1,306.73,319Z" style="opacity:0.1"></path><path d="M313.18,319a1,1,0,1,1-1-1A1,1,0,0,1,313.18,319Z" style="opacity:0.1"></path><circle cx="305.77" cy="319.01" r="0.65" style="fill:#263238"></circle><circle cx="312.21" cy="319.01" r="0.65" style="fill:#263238"></circle><path d="M312.21,319.15a.37.37,0,0,1-.37-.36,17.89,17.89,0,0,0-.55-3.48c-.37-1.38-1.05-3-2.21-3-2.14,0-2.95,5.4-2.95,6.51a.37.37,0,0,1-.73,0c0-.08.44-7.25,3.68-7.25s3.5,7.17,3.5,7.25A.36.36,0,0,1,312.21,319.15Z" style="fill:#37474F"></path><rect x="326.17" y="308.78" width="23.36" height="23.36" style="fill:#ebebeb"></rect><path d="M343.69,329.45H332c-3.15,0-2.64-2.52-1.89-5.17s1.88-6.66,4.7-6.66h6.06c2.81,0,3.93,4,4.69,6.66S346.84,329.45,343.69,329.45Z" style="fill:#a6a6a6"></path><g style="opacity:0.1"><path d="M334.5,317.75a.13.13,0,0,1-.12.12.12.12,0,0,1-.12-.12.12.12,0,0,1,.12-.12A.12.12,0,0,1,334.5,317.75Z"></path><path d="M336.49,317.75a.13.13,0,0,1-.12.12.12.12,0,0,1-.12-.12.12.12,0,0,1,.12-.12A.12.12,0,0,1,336.49,317.75Z"></path><path d="M338.47,317.75a.12.12,0,0,1-.12.12.13.13,0,0,1-.12-.12.12.12,0,0,1,.12-.12A.12.12,0,0,1,338.47,317.75Z"></path><path d="M340.46,317.75a.12.12,0,0,1-.12.12.13.13,0,0,1-.12-.12.12.12,0,0,1,.12-.12A.12.12,0,0,1,340.46,317.75Z"></path><path d="M332.51,320.3a.12.12,0,1,1-.24,0,.12.12,0,0,1,.24,0Z"></path><path d="M334.5,320.3a.12.12,0,0,1-.12.12.12.12,0,0,1-.12-.12.12.12,0,0,1,.12-.12A.13.13,0,0,1,334.5,320.3Z"></path><path d="M336.49,320.3a.12.12,0,0,1-.12.12.12.12,0,0,1-.12-.12.12.12,0,0,1,.12-.12A.13.13,0,0,1,336.49,320.3Z"></path><path d="M338.47,320.3a.12.12,0,0,1-.12.12.12.12,0,0,1-.12-.12.13.13,0,0,1,.12-.12A.12.12,0,0,1,338.47,320.3Z"></path><path d="M340.46,320.3a.12.12,0,0,1-.12.12.12.12,0,0,1-.12-.12.13.13,0,0,1,.12-.12A.12.12,0,0,1,340.46,320.3Z"></path><path d="M342.45,320.3a.12.12,0,0,1-.24,0,.12.12,0,0,1,.24,0Z"></path><path d="M333.5,319a.12.12,0,0,1-.12.12.12.12,0,0,1-.12-.12.13.13,0,0,1,.12-.12A.12.12,0,0,1,333.5,319Z"></path><path d="M335.49,319a.12.12,0,0,1-.12.12.12.12,0,0,1-.12-.12.13.13,0,0,1,.12-.12A.12.12,0,0,1,335.49,319Z"></path><path d="M337.48,319a.12.12,0,0,1-.24,0,.12.12,0,0,1,.24,0Z"></path><path d="M339.47,319a.12.12,0,0,1-.24,0,.12.12,0,0,1,.24,0Z"></path><path d="M341.46,319a.12.12,0,0,1-.12.12.12.12,0,0,1-.12-.12.12.12,0,0,1,.12-.12A.13.13,0,0,1,341.46,319Z"></path><path d="M343.43,319.05a.11.11,0,0,1-.1.06.12.12,0,0,1-.12-.12.11.11,0,0,1,.08-.11C343.34,318.93,343.38,319,343.43,319.05Z"></path><path d="M332.51,322.86a.12.12,0,1,1-.12-.12A.12.12,0,0,1,332.51,322.86Z"></path><path d="M334.5,322.86a.12.12,0,0,1-.12.12.12.12,0,0,1,0-.24A.12.12,0,0,1,334.5,322.86Z"></path><path d="M336.49,322.86a.12.12,0,0,1-.12.12.12.12,0,0,1,0-.24A.12.12,0,0,1,336.49,322.86Z"></path><path d="M338.47,322.86a.12.12,0,0,1-.12.12.12.12,0,0,1,0-.24A.12.12,0,0,1,338.47,322.86Z"></path><path d="M340.46,322.86a.12.12,0,0,1-.12.12.12.12,0,1,1,0-.24A.12.12,0,0,1,340.46,322.86Z"></path><path d="M342.45,322.86a.12.12,0,1,1-.12-.12A.12.12,0,0,1,342.45,322.86Z"></path><path d="M344.44,322.86a.12.12,0,1,1-.12-.12A.12.12,0,0,1,344.44,322.86Z"></path><circle cx="331.39" cy="321.55" r="0.12"></circle><path d="M333.5,321.55a.12.12,0,0,1-.12.12.12.12,0,0,1,0-.24A.12.12,0,0,1,333.5,321.55Z"></path><path d="M335.49,321.55a.12.12,0,0,1-.12.12.12.12,0,0,1,0-.24A.12.12,0,0,1,335.49,321.55Z"></path><path d="M337.48,321.55a.12.12,0,1,1-.12-.12A.12.12,0,0,1,337.48,321.55Z"></path><path d="M339.47,321.55a.12.12,0,1,1-.12-.12A.12.12,0,0,1,339.47,321.55Z"></path><path d="M341.46,321.55a.12.12,0,0,1-.12.12.12.12,0,1,1,0-.24A.12.12,0,0,1,341.46,321.55Z"></path><path d="M343.45,321.55a.12.12,0,0,1-.12.12.12.12,0,1,1,0-.24A.12.12,0,0,1,343.45,321.55Z"></path><path d="M330.52,325.42a.12.12,0,0,1-.24,0,.12.12,0,1,1,.24,0Z"></path><path d="M332.51,325.42a.12.12,0,0,1-.24,0,.12.12,0,1,1,.24,0Z"></path><path d="M334.5,325.42a.13.13,0,0,1-.12.12.12.12,0,0,1-.12-.12.12.12,0,0,1,.12-.13A.13.13,0,0,1,334.5,325.42Z"></path><path d="M336.49,325.42a.13.13,0,0,1-.12.12.12.12,0,0,1-.12-.12.12.12,0,0,1,.12-.13A.13.13,0,0,1,336.49,325.42Z"></path><path d="M338.47,325.42a.12.12,0,0,1-.12.12.13.13,0,0,1-.12-.12.13.13,0,0,1,.12-.13A.12.12,0,0,1,338.47,325.42Z"></path><path d="M340.46,325.42a.12.12,0,0,1-.12.12.13.13,0,0,1-.12-.12.13.13,0,0,1,.12-.13A.12.12,0,0,1,340.46,325.42Z"></path><path d="M342.45,325.42a.12.12,0,0,1-.24,0,.12.12,0,1,1,.24,0Z"></path><path d="M344.44,325.42a.12.12,0,0,1-.24,0,.12.12,0,1,1,.24,0Z"></path><circle cx="331.39" cy="324.1" r="0.12"></circle><path d="M333.5,324.1a.12.12,0,0,1-.12.13.13.13,0,0,1-.12-.13.13.13,0,0,1,.12-.12A.12.12,0,0,1,333.5,324.1Z"></path><path d="M335.49,324.1a.12.12,0,0,1-.12.13.13.13,0,0,1-.12-.13.13.13,0,0,1,.12-.12A.12.12,0,0,1,335.49,324.1Z"></path><path d="M337.48,324.1a.12.12,0,1,1-.24,0,.12.12,0,0,1,.24,0Z"></path><path d="M339.47,324.1a.12.12,0,1,1-.24,0,.12.12,0,0,1,.24,0Z"></path><path d="M341.46,324.1a.13.13,0,0,1-.12.13.12.12,0,0,1-.12-.13.12.12,0,0,1,.12-.12A.13.13,0,0,1,341.46,324.1Z"></path><path d="M343.45,324.1a.13.13,0,0,1-.12.13.13.13,0,0,1-.13-.13.13.13,0,0,1,.13-.12A.13.13,0,0,1,343.45,324.1Z"></path><path d="M345.43,324.1a.12.12,0,0,1-.12.13.13.13,0,0,1-.12-.13.13.13,0,0,1,.12-.12A.12.12,0,0,1,345.43,324.1Z"></path><path d="M330.52,328a.12.12,0,1,1-.12-.12A.12.12,0,0,1,330.52,328Z"></path><circle cx="332.39" cy="327.97" r="0.12"></circle><circle cx="334.38" cy="327.97" r="0.12"></circle><circle cx="336.37" cy="327.97" r="0.12"></circle><circle cx="338.35" cy="327.97" r="0.12"></circle><path d="M340.46,328a.12.12,0,0,1-.12.12.12.12,0,0,1,0-.24A.12.12,0,0,1,340.46,328Z"></path><circle cx="342.33" cy="327.97" r="0.12"></circle><circle cx="344.32" cy="327.97" r="0.12"></circle><circle cx="331.39" cy="326.66" r="0.12"></circle><path d="M333.5,326.66a.12.12,0,0,1-.12.12.12.12,0,0,1,0-.24A.12.12,0,0,1,333.5,326.66Z"></path><path d="M335.49,326.66a.12.12,0,0,1-.12.12.12.12,0,0,1,0-.24A.12.12,0,0,1,335.49,326.66Z"></path><path d="M337.48,326.66a.12.12,0,1,1-.12-.12A.12.12,0,0,1,337.48,326.66Z"></path><path d="M339.47,326.66a.12.12,0,1,1-.12-.12A.12.12,0,0,1,339.47,326.66Z"></path><path d="M341.46,326.66a.12.12,0,0,1-.12.12.12.12,0,0,1,0-.24A.12.12,0,0,1,341.46,326.66Z"></path><path d="M343.45,326.66a.12.12,0,0,1-.12.12.12.12,0,1,1,0-.24A.12.12,0,0,1,343.45,326.66Z"></path><path d="M345.43,326.66a.12.12,0,0,1-.12.12.12.12,0,0,1,0-.24A.12.12,0,0,1,345.43,326.66Z"></path><circle cx="331.39" cy="329.22" r="0.12"></circle><path d="M333.5,329.22a.12.12,0,0,1-.12.12.13.13,0,0,1-.12-.12.12.12,0,0,1,.12-.12A.12.12,0,0,1,333.5,329.22Z"></path><path d="M335.49,329.22a.12.12,0,0,1-.12.12.13.13,0,0,1-.12-.12.12.12,0,0,1,.12-.12A.12.12,0,0,1,335.49,329.22Z"></path><path d="M337.48,329.22a.12.12,0,1,1-.24,0,.12.12,0,0,1,.24,0Z"></path><path d="M339.47,329.22a.12.12,0,1,1-.24,0,.12.12,0,0,1,.24,0Z"></path><path d="M341.46,329.22a.13.13,0,0,1-.12.12.12.12,0,0,1-.12-.12.12.12,0,0,1,.12-.12A.12.12,0,0,1,341.46,329.22Z"></path><path d="M343.45,329.22a.13.13,0,0,1-.12.12.13.13,0,0,1-.13-.12.12.12,0,0,1,.13-.12A.12.12,0,0,1,343.45,329.22Z"></path><path d="M345.29,329.1l-.06,0A.09.09,0,0,1,345.29,329.1Z"></path></g><path d="M335.6,319a1,1,0,1,1-1-1A1,1,0,0,1,335.6,319Z" style="opacity:0.1"></path><path d="M342.05,319a1,1,0,1,1-1-1A1,1,0,0,1,342.05,319Z" style="opacity:0.1"></path><circle cx="334.63" cy="319.01" r="0.65" style="fill:#263238"></circle><circle cx="341.08" cy="319.01" r="0.65" style="fill:#263238"></circle><path d="M341.08,319.15a.37.37,0,0,1-.37-.36,17.89,17.89,0,0,0-.55-3.48c-.37-1.38-1.06-3-2.22-3-2.14,0-2.94,5.4-2.94,6.51a.36.36,0,0,1-.37.36.37.37,0,0,1-.37-.36c0-.08.45-7.25,3.68-7.25s3.51,7.17,3.51,7.25A.37.37,0,0,1,341.08,319.15Z" style="fill:#a6a6a6"></path></g><g id="freepik--Puff--inject-96"><path d="M70.29,450.51l146.77.63c35.68-28,39.36-69.51,13.91-94.67-15.4-15.21-35-12.14-53.59-14.56h0a54.92,54.92,0,0,1-18.89-5.55c-19.18-10.11-30-34-46.12-54.06-2-2.51-4.11-5-6.32-7.32-13.27-14.17-39.67-14.63-53.49,5.29C17.42,330.87,33.5,406.19,70.29,450.51Z" style="fill:#c7c7c7"></path><path d="M67,334.72c3.85,60.22,73.39,82.7,116.82,64.66,37.77-15.69,25.41-51.49-6.47-57.47h0a54.92,54.92,0,0,1-18.89-5.55c-19.18-10.11-30-34-46.12-54.06C88.28,269.81,64.21,290.63,67,334.72Z" style="fill:#dbdbdb"></path></g><g id="freepik--Character--inject-96"><path d="M204.86,459.63c-2.27-.83-53.56-41.83-54.53-44.63-.38-1.06,5.16-8.88,12.11-18.13,1.51-2,3.07-4.06,4.67-6.14,10.37-13.5,21.68-27.59,21.68-27.59l34.39,27.32L200.56,417.3l-5,5.9s12.62,24.48,13.35,27.67S207.13,460.46,204.86,459.63Z" style="fill:#f7a9a0"></path><path d="M204.86,459.63c-2.27-.83-53.56-41.83-54.53-44.63-.45-1.29,7.81-12.56,16.78-24.27l33.45,26.57-5,5.9s12.62,24.48,13.35,27.67S207.13,460.46,204.86,459.63Z" style="fill:#fff"></path><path d="M204.86,459.63c-2.27-.83-53.56-41.83-54.53-44.63-.38-1.06,5.16-8.88,12.11-18.13l33.15,26.33s12.62,24.48,13.35,27.67S207.13,460.46,204.86,459.63Z" style="fill:#37474F"></path><path d="M205.77,457c-8.43-7.08-43.1-34.86-52-41.22-.08,0-.11,0-.05.06,8.2,7.2,43.1,34.69,51.9,41.3C205.84,457.27,205.94,457.14,205.77,457Z" style="fill:#263238"></path><path d="M207.12,446.38a8.87,8.87,0,0,0-6.82-2,8.6,8.6,0,0,0-5.59,3.06c0,.05,0,.13.1.08a10.22,10.22,0,0,1,12.22-1A.07.07,0,0,0,207.12,446.38Z" style="fill:#263238"></path><path d="M198.24,426.72c-3.4-2.8-8.36-4.77-12.75-3.67-.17.05-.1.29,0,.32A61.06,61.06,0,0,1,198,427.19.27.27,0,0,0,198.24,426.72Z" style="fill:#263238"></path><path d="M200.07,429.88c-3.4-2.8-8.36-4.77-12.75-3.67-.17.05-.11.29,0,.32a61,61,0,0,1,12.43,3.82A.28.28,0,0,0,200.07,429.88Z" style="fill:#263238"></path><path d="M201.9,433c-3.4-2.8-8.36-4.77-12.75-3.67-.17.05-.11.29,0,.32a61,61,0,0,1,12.43,3.82A.28.28,0,0,0,201.9,433Z" style="fill:#263238"></path><path d="M203.73,436.2c-3.4-2.8-8.36-4.77-12.75-3.67-.17,0-.11.29,0,.31a61.63,61.63,0,0,1,12.43,3.83A.28.28,0,0,0,203.73,436.2Z" style="fill:#263238"></path><path d="M162.51,409.36c-3.87-3.08-8.65,2.93-4.78,6S166.39,412.44,162.51,409.36Z" style="fill:#fff"></path><path d="M209.3,420.51c-.58-2.84-3.91-3.18-6.18-2.54a23.14,23.14,0,0,0-10.16,6.3.12.12,0,0,0,0,.19.53.53,0,0,0,.4.77c3.8.26,7.84,1,11.61.11C207.2,424.8,209.86,423.19,209.3,420.51Zm-10.06,3.94c-1.88-.08-3.74-.26-5.62-.27a67.37,67.37,0,0,1,6-3.55,25.67,25.67,0,0,1,3.11-1.32c1.66-.54,7.34-.72,4.69,3.3C206,424.83,201.47,424.55,199.24,424.45Z" style="fill:#263238"></path><path d="M183.39,418.72c2.63,2.85,6.4,4.47,9.71,6.36a.53.53,0,0,0,.76-.42c.07,0,.14,0,.13-.13a23.16,23.16,0,0,0-5-10.89c-1.53-1.8-4.48-3.36-6.55-1.33S181.85,417.05,183.39,418.72Zm-.51-3.62c0-4.82,4.65-1.51,5.73-.14a24.88,24.88,0,0,1,1.85,2.82,68.8,68.8,0,0,1,3,6.3c-1.57-1-3.21-1.92-4.82-2.9C186.76,420,182.86,417.75,182.88,415.1Z" style="fill:#263238"></path><path d="M257.92,337.92c-2.35,17.87-46.39,69.45-51.48,75.37l-1.16,1.34-36.42-28,.42-.54,32.07-42-95.68-.56L142,315.29s2.95,1.7,9.07.81c21.12-3.09,68.73-9.94,80-9.49C245.5,307.21,260.08,321.52,257.92,337.92Z" style="fill:#37474f"></path><path d="M212.87,328.49a42.66,42.66,0,0,0-3.31,4.24c-1.13,1.48-2.28,3-3.42,4.44l0,.05c.2-.44.4-.87.61-1.31.71-1.48,1.28-3,2.13-4.42.05-.09-.08-.17-.13-.08-.87,1.4-1.88,2.74-2.62,4.22-.35.69-.68,1.4-1,2.11-.17.39-.35.79-.5,1.19-.07.18-.15.37-.21.57-.5.69-1,1.38-1.49,2.09-1.08,1.56-2,3.22-3.13,4.77-.06.08.08.16.14.08,1.1-1.46,2.34-2.82,3.47-4.27s2.23-3,3.3-4.52,2.07-3,3.12-4.48a44.67,44.67,0,0,0,3.15-4.61A.06.06,0,0,0,212.87,328.49Z" style="fill:#263238"></path><path d="M111,238.73c-7.59,6-15.1,45-18,49.34-2.07,3.05-4.67,6.1-4.55,7.82s7.4,10.18,21.17,12.84,27.34-3.91,28.72-5.64-2.25-7.67-2.11-13,4.9-34.59,2-43.31C134.88,236.89,119.71,231.89,111,238.73Z" style="fill:#263238"></path><path d="M139.29,301.43a25.56,25.56,0,0,1-2.07-11.05c.08-4.27.62-8.54,1.09-12.78q.75-6.71,1.49-13.42c.43-3.95,1-7.94.26-11.88a22,22,0,0,0-4.87-10.36s-.11,0-.07.05a23.61,23.61,0,0,1,4.53,10.35c.71,4.22,0,8.53-.45,12.76-.5,4.39-1,8.77-1.47,13.16-.44,4-.94,8.1-1,12.16,0,3.74.33,7.9,2.32,11.12C139.14,301.66,139.35,301.56,139.29,301.43Z" style="fill:#263238"></path><path d="M112.21,238.47c-3.52,1.91-5.24,5.69-6.65,9.32-1.9,4.93-3.65,9.93-5.29,15-1.7,5.19-3.1,10.47-4.77,15.67a54.8,54.8,0,0,1-7.16,14.18c-.07.1,0,.22.14.13,6.55-7.67,8.57-18,11.57-27.42q2.49-7.8,5.25-15.5c1.49-4.16,3-8.87,7-11.26C112.32,238.52,112.26,238.44,112.21,238.47Z" style="fill:#263238"></path><path d="M115.42,237.05c-7.36,2.88-10.27,11.12-12.64,18.15-2.82,8.35-4.85,16.95-7.34,25.4-1.39,4.77-2.65,9.95-5.75,13.91-.09.12.08.27.18.16,2.38-2.84,3.6-6.37,4.73-9.86,1.35-4.19,2.53-8.43,3.69-12.67,2.32-8.4,4.44-17.07,8.06-25,1.91-4.18,4.76-8.26,9.1-10C115.5,237.11,115.47,237,115.42,237.05Z" style="fill:#263238"></path><path d="M117.64,289.9c6.49,9.31,28.72,33.47,44.09,37,8.48,1.93,49.41,7.65,55,2.55,6.57-6,3.52-28.52-1.7-28.72-16-.63-45.45,2.49-52.82.87-3.33-.74-21-12.14-39.88-21.26C115.22,276.88,113.46,283.89,117.64,289.9Z" style="fill:#f7a9a0"></path><path d="M206.37,299.47l-2.74,33.74s-37.14-.59-48.35-6.89-29.46-22.38-36.44-33.56-4.65-17.27,9-10.39,32,17.9,34.44,18.48S206.37,299.47,206.37,299.47Z" style="fill:#37474F"></path><path d="M200.4,301.82c0-.09-.14-.13-.16,0-.45,2.32-.65,4.7-.91,7s-.5,4.86-.72,7.29c-.44,4.85-1,9.73-1.1,14.59,0,.21.28.21.31,0,.73-4.77,1.11-9.63,1.57-14.44.22-2.39.44-4.77.61-7.16S200.43,304.25,200.4,301.82Z" style="fill:#263238"></path><path d="M84.39,351.55c2,.65,59.94-16.1,59.94-16.1l-6.84-20.11s3.38-6.46,1.81-12.68c-2.09-8.31-17.47-22-18.68-22.77-4.85-3.22-9.4-3.16-13.42-1C90.46,287.76,84.39,351.55,84.39,351.55Z" style="fill:#37474F"></path><path d="M128.57,287.13c1.49,1.73,3.09,3.38,4.63,5.08-.72-1.26-1.43-2.54-2.2-3.77,0,0,0-.06,0,0a28.35,28.35,0,0,1,2.93,4.67,38,38,0,0,1,3.2,4.08,18.29,18.29,0,0,1,2.63,5.6A15.24,15.24,0,0,1,140,309a39.63,39.63,0,0,1-1.95,6.93c-.11.3-.53.11-.45-.18,1.09-3.93,2.32-8.07,1.45-12.17s-3.4-7.48-5.86-10.7a58.74,58.74,0,0,0-4.72-5.62C128.37,287.15,128.5,287.05,128.57,287.13Z" style="fill:#263238"></path><path d="M110.82,280c.23,1.05,5.13,7.92,9.92,7.76,1.55-.05,1.64-8.57,1.64-8.57l.15-.63,2.1-8.79-11.74-7.69S110.73,279.55,110.82,280Z" style="fill:#f7a9a0"></path><path d="M124.63,269.76l-2.1,8.79A18.16,18.16,0,0,1,112.16,268c.36-3,.67-5.55.71-5.92a.18.18,0,0,0,0-.05l1.49.9Z" style="fill:#263238"></path><path d="M138.35,259c-1,15.83-10.58,17-14,16.8-3.09-.19-13.62-1.26-14.27-17.11s7-20.38,14.14-20.3S139.34,243.14,138.35,259Z" style="fill:#f7a9a0"></path><path d="M136,257.44c-.36-.1-.68-.24-1-.37a1.77,1.77,0,0,1-1-.57.58.58,0,0,1,.1-.69,1.42,1.42,0,0,1,1.41-.14,2.07,2.07,0,0,1,1.18.89A.61.61,0,0,1,136,257.44Z" style="fill:#263238"></path><path d="M125.63,256.09a9.81,9.81,0,0,0,1.09-.08,1.76,1.76,0,0,0,1.1-.3.55.55,0,0,0,.09-.68,1.39,1.39,0,0,0-1.32-.51,2.12,2.12,0,0,0-1.38.55A.61.61,0,0,0,125.63,256.09Z" style="fill:#263238"></path><path d="M127.55,258.74s-.09,0-.1.09c-.08,1.08-.36,2.3-1.37,2.55,0,0,0,.06,0,.06C127.29,261.4,127.64,259.78,127.55,258.74Z" style="fill:#263238"></path><path d="M126.71,257.52c-1.71-.32-2.23,3.12-.64,3.42S128.15,257.79,126.71,257.52Z" style="fill:#263238"></path><path d="M126,257.6c-.33.15-.68.45-1.05.43s-.69-.43-.91-.82c0,0-.06,0-.07,0-.1.66,0,1.38.74,1.58s1.19-.33,1.45-1C126.22,257.74,126.14,257.54,126,257.6Z" style="fill:#263238"></path><path d="M133.45,259.36s.07.06.06.11c-.2,1.06-.25,2.31.66,2.81,0,0,0,.07,0,.06C133,262,133.09,260.33,133.45,259.36Z" style="fill:#263238"></path><path d="M134.57,258.4c1.74.14,1.33,3.6-.27,3.47S133.12,258.28,134.57,258.4Z" style="fill:#263238"></path><path d="M135.27,258.71c.25.22.48.58.81.64s.7-.27,1-.6c0,0,.05,0,.05,0-.06.67-.36,1.33-1,1.38s-.95-.57-1-1.25C135.05,258.8,135.17,258.62,135.27,258.71Z" style="fill:#263238"></path><path d="M126.06,268c.2.3.39.69.77.79a2.67,2.67,0,0,0,1.19,0s.06,0,0,.06a1.45,1.45,0,0,1-1.46.32,1.16,1.16,0,0,1-.65-1.1A.06.06,0,0,1,126.06,268Z" style="fill:#263238"></path><path d="M131.06,264.75s0,1.62-.1,2.38c0,.07-.2.08-.46.06h0a3.61,3.61,0,0,1-3.29-1.81.08.08,0,0,1,.12-.09,5.5,5.5,0,0,0,3.15,1.38c.08-.2-.1-2.78,0-2.78a7,7,0,0,1,1.66.63c.1-3.39-.35-6.77-.21-10.15a.11.11,0,0,1,.21,0,54.9,54.9,0,0,1,.68,10.92C132.82,265.69,131.34,264.92,131.06,264.75Z" style="fill:#263238"></path><path d="M110,259.51a6.57,6.57,0,0,0,4.71-4.45,17,17,0,0,0,8-4c-.18.3-1.42,2.45-2.09,3.53,10.26.27,14.93-6.63,14.93-6.63a17.51,17.51,0,0,1,3,7.18s1.37-6-.88-10.76a10,10,0,0,0-8.14-5.95,14.27,14.27,0,0,0-14.52,1.28C107,245.29,110,259.51,110,259.51Z" style="fill:#263238"></path><path d="M128.42,254.53a18.82,18.82,0,0,1-5.46.78,0,0,0,0,1,0,0,15.84,15.84,0,0,0,8.18-2.82,15.37,15.37,0,0,0,2.76-2.52,10.41,10.41,0,0,0,2.12-3.48.08.08,0,1,1,.15,0,12,12,0,0,1-1.62,3.72,11,11,0,0,1-2.89,2.8,12.59,12.59,0,0,1-3.24,1.51" style="fill:#263238"></path><path d="M112.52,260s-2.68-5.41-5.09-4.53-.9,8.37,1.57,9.74a2.67,2.67,0,0,0,3.76-.89Z" style="fill:#f7a9a0"></path><path d="M107.92,257.64s-.06.05,0,.07c1.72,1,2.43,2.85,2.84,4.71a1.48,1.48,0,0,0-2.13-.73.06.06,0,0,0,0,.11,1.63,1.63,0,0,1,1.71.84,7.27,7.27,0,0,1,.64,1.58c.06.17.37.13.34-.07v0C111.71,261.78,110.39,258.25,107.92,257.64Z" style="fill:#263238"></path><path d="M98.46,293c-4.65,26.41-.15,46.19,4.33,48.64,12.08,6.6,41.08-6.78,49.27-9.44,3.3-1.07-11.77-26.36-15.15-24.8-7.95,3.67-19.09,9.91-19.54,9.86-.9-.09-1.94-6.83-6.56-26.48C107.08,274.92,100.37,282.23,98.46,293Z" style="fill:#f7a9a0"></path><path d="M178.42,294.91c.83,3.32-7.52,4.67-7.52,4.67a6.28,6.28,0,0,1,3.31,2.73c1.21,2.3-1.85,5.21-1.85,5.21a7.82,7.82,0,0,1,3,3.44c.94,2.31-1.74,5.69-1.74,5.69a6.84,6.84,0,0,1,.76,4.71c-1,4.26-7.55,5.93-11.39,7.77-4.11,2-10.91,2.69-14,4.08l-13.37-24.49S148.57,295,156,292.92C160,291.75,177.16,289.84,178.42,294.91Z" style="fill:#f7a9a0"></path><path d="M170.81,299.5c-4.65-.2-9.34.71-13.86,1.64-.1,0-.06.17,0,.15,4.48-1,9.33-.77,13.83-1.57A.11.11,0,0,0,170.81,299.5Z" style="fill:#263238"></path><path d="M172.15,307.21a12.44,12.44,0,0,0-3.12.58c-1.08.28-2.17.58-3.25.9-2.16.64-4.3,1.32-6.43,2.06-.09,0-.06.19,0,.16q3.23-.95,6.49-1.76c1.09-.27,2.19-.53,3.28-.78a14.64,14.64,0,0,0,3.06-.86A.16.16,0,0,0,172.15,307.21Z" style="fill:#263238"></path><path d="M173.56,316.68a8.5,8.5,0,0,0-2.78.67l-2.94.91c-2,.6-3.92,1.2-5.91,1.72-.09,0-.06.19,0,.16,2-.53,4-1,6.05-1.57l3-.82a7.68,7.68,0,0,0,2.61-1A.06.06,0,0,0,173.56,316.68Z" style="fill:#263238"></path><path d="M136.07,307.21,150,336.91s-43.1,12.57-48.94,5-5.44-31.36-2.7-47.82,10.15-16.78,13.39-1.9,5.16,24.28,5.74,24.2S136.07,307.21,136.07,307.21Z" style="fill:#37474F"></path><path d="M130.45,311.2c0-.07-.18,0-.15.06.78,2.23,1.82,4.38,2.77,6.54s2,4.45,3.06,6.66c2.07,4.4,4.1,8.87,6.43,13.14a.15.15,0,1,0,.26-.14c-1.78-4.5-3.9-8.88-5.94-13.26-1-2.18-2-4.34-3.09-6.49S131.7,313.29,130.45,311.2Z" style="fill:#263238"></path><path d="M127.18,342.37a17.81,17.81,0,0,0-3.6.6c-1.25.22-2.5.42-3.75.58a68.87,68.87,0,0,1-7.31.63c-2.41.06-8.37-.3-10.2-2a11.45,11.45,0,0,1-3.11-5.36,78.12,78.12,0,0,1-1.48-8.47,109.78,109.78,0,0,1-.57-18.13c.07-1.68.18-3.37.3-5.05s.33-3.42.38-5.14c0-.06-.1-.07-.11,0a59.17,59.17,0,0,0-1.14,8.3c-.11-1.73-.32-3.47-.34-5.21a.08.08,0,0,0-.16,0c0,1.83-.09,3.66,0,5.49,0,1,.14,2.05.25,3.07-.14,2.33-.21,4.66-.18,7a71.7,71.7,0,0,0,2.13,18.23c.71,2.59,1.81,5.06,4.17,6.45a15.34,15.34,0,0,0,5.67,1.48,47.49,47.49,0,0,0,12.42-.78q1.71-.33,3.42-.72a13.53,13.53,0,0,0,3.27-.89S127.24,342.37,127.18,342.37Z" style="fill:#263238"></path><polygon points="136.62 307.44 136.62 307.45 136.62 307.45 136.62 307.44" style="fill:#263238"></polygon><path d="M136,306.65c-3.17,1.59-6.35,3.18-9.51,4.8l-4.67,2.39c-1.5.78-4.36,2.32-4.36,2.32,0-.72-.58-2.79-.88-4.13s-.67-2.91-1-4.36c-.1-.38-.21-.75-.31-1.13-.07-.69-.13-1.39-.19-2.09-.11-1.12-.2-2.26-.37-3.38,0,0-.06,0-.07,0a16.4,16.4,0,0,0,0,3.21c-.48-1.76-1-3.5-1.5-5.24a0,0,0,1,0-.09,0c.57,2.94,1.17,5.88,1.84,8.8.33,1.41.69,2.82,1.06,4.23a44.3,44.3,0,0,0,1.26,4.5,49,49,0,0,0,4.75-2.1q2.43-1.15,4.84-2.36c3.11-1.56,6.25-3.15,9.26-4.91,0,0,.21.4.24.45s.18-.09.14-.23S136.08,306.62,136,306.65Z" style="fill:#263238"></path><polygon points="136.62 307.45 136.62 307.45 136.62 307.45 136.62 307.45" style="fill:#263238"></polygon><polygon points="163.35 335.95 203.96 335.95 221.76 278.48 181.16 278.48 163.35 335.95" style="fill:#263238"></polygon><polygon points="165.34 335.95 205.95 335.95 223.76 278.48 183.15 278.48 165.34 335.95" style="fill:#455a64"></polygon><path d="M198.82,305.41a5.5,5.5,0,0,1-5,3.95,2.94,2.94,0,0,1-2.91-3.95,5.5,5.5,0,0,1,5-4A2.94,2.94,0,0,1,198.82,305.41Z" style="fill:#fff"></path><path d="M217.51,298.63c2,3.65,7.24,8.13,7.77,11.17a3.53,3.53,0,0,1-1.75,3.84s3.14,1.35,3.17,4.19c0,1.46-2.3,2.77-2.3,2.77a4.21,4.21,0,0,1,2.34,3.71c-.1,2-2.4,3-2.4,3s1.83,2.24,1.07,4.26c-1.54,4.09-18.8,5.06-21.83-1.15-1.4-2.9,2.83-2.9,2.83-2.9s-6.09-1.46-6.38-5,5.21-3.23,5.21-3.23-5.89-1.46-5.82-5.18,5.52-2.6,5.52-2.6-4-2.39-3.28-5.22c1.16-4.68,9.81.88,13.55-.23Z" style="fill:#f7a9a0"></path><path d="M224,327.55a0,0,0,0,1,0,.09,30,30,0,0,1-17.85-.07c-.18-.06-.16-.38.06-.35A61.46,61.46,0,0,0,224,327.55Z" style="fill:#263238"></path><path d="M224.49,320.63c.06,0,.08.1,0,.12A28.09,28.09,0,0,1,205,319.47c-.21-.1-.3-.4,0-.31C209.24,320.83,219,321.41,224.49,320.63Z" style="fill:#263238"></path><path d="M204.56,311.16c6,2.62,12.26,3,18.74,2.56.08,0,.08.11,0,.14-3.1,1.1-7.26,1-10.5.61a17.17,17.17,0,0,1-8.34-3.1C204.37,311.3,204.43,311.11,204.56,311.16Z" style="fill:#263238"></path><path d="M337.84,413.17c-.84,2.27-42,53.43-44.8,54.39-1.06.37-8.86-5.19-18.1-12.18-2-1.51-4-3.08-6.12-4.68-13.47-10.41-27.52-21.77-27.52-21.77l27.43-34.31,26.77,22.72,5.88,5s24.52-12.54,27.71-13.26S338.68,410.9,337.84,413.17Z" style="fill:#f7a9a0"></path><path d="M337.84,413.17c-.84,2.27-42,53.43-44.8,54.39-1.3.44-12.54-7.86-24.22-16.86l26.68-33.36,5.88,5s24.52-12.54,27.71-13.26S338.68,410.9,337.84,413.17Z" style="fill:#fff"></path><path d="M337.84,413.17c-.84,2.27-42,53.43-44.8,54.39-1.06.37-8.86-5.19-18.1-12.18l26.44-33.06s24.52-12.54,27.71-13.26S338.68,410.9,337.84,413.17Z" style="fill:#37474F"></path><path d="M335.2,412.25c-7.11,8.41-35,43-41.38,51.84-.05.07,0,.11.05.05,7.23-8.18,34.84-43,41.48-51.77C335.49,412.18,335.35,412.08,335.2,412.25Z" style="fill:#263238"></path><path d="M324.6,410.87a8.82,8.82,0,0,0-2,6.81,8.57,8.57,0,0,0,3,5.6c.05,0,.13,0,.08-.1a10.23,10.23,0,0,1-1-12.23A.07.07,0,0,0,324.6,410.87Z" style="fill:#263238"></path><path d="M304.91,419.68c-2.81,3.39-4.8,8.35-3.71,12.74.05.17.29.11.32,0A60.19,60.19,0,0,1,305.38,420,.28.28,0,0,0,304.91,419.68Z" style="fill:#263238"></path><path d="M308.08,417.86c-2.81,3.39-4.8,8.35-3.71,12.74,0,.17.28.11.31,0a60.83,60.83,0,0,1,3.87-12.42A.28.28,0,0,0,308.08,417.86Z" style="fill:#263238"></path><path d="M311.24,416c-2.81,3.4-4.8,8.35-3.71,12.74.05.17.29.11.32,0a60.38,60.38,0,0,1,3.86-12.42A.28.28,0,0,0,311.24,416Z" style="fill:#263238"></path><path d="M314.41,414.22c-2.81,3.4-4.8,8.35-3.71,12.74,0,.17.28.11.31,0a61.11,61.11,0,0,1,3.87-12.43A.28.28,0,0,0,314.41,414.22Z" style="fill:#263238"></path><path d="M287.43,455.35c-3.09,3.86,2.91,8.67,6,4.8S290.52,451.49,287.43,455.35Z" style="fill:#fff"></path><path d="M298.74,408.6c-2.84.58-3.2,3.9-2.56,6.17A23.14,23.14,0,0,0,302.45,425a.11.11,0,0,0,.18,0,.54.54,0,0,0,.78-.4c.27-3.8,1-7.83.14-11.61C303,410.72,301.42,408.05,298.74,408.6Zm3.9,10.08c-.09,1.87-.27,3.73-.29,5.61a69.82,69.82,0,0,1-3.53-6,26.55,26.55,0,0,1-1.31-3.11c-.53-1.66-.69-7.34,3.32-4.68C303,411.94,302.75,416.45,302.64,418.68Z" style="fill:#263238"></path><path d="M296.86,434.51c2.86-2.62,4.49-6.39,6.4-9.69a.54.54,0,0,0-.42-.76.12.12,0,0,0-.14-.13,23.22,23.22,0,0,0-10.9,4.91c-1.8,1.53-3.37,4.47-1.35,6.55S295.19,436,296.86,434.51Zm-3.62.5c-4.82-.05-1.5-4.66-.13-5.73a26.58,26.58,0,0,1,2.84-1.85c2-1.17,4.18-2,6.3-3-1,1.56-1.93,3.2-2.91,4.8C298.18,431.14,295.89,435,293.24,435Z" style="fill:#263238"></path><path d="M294.07,412.16l-28.55,38.52-96.34-66.85-9.29-6.45s-2.63,1.77-6.59,4c-5.5,3-13.56,6.89-20.69,7.94-12,1.77-31.93,1.58-42-11.9-8.49-11.35-3.88-26.16-3.88-26.16l13.13-5.64s31.08-25.89,51.21-26.67c8.55-.34,21,6.14,32.53,12.91S294.07,412.16,294.07,412.16Z" style="fill:#37474f"></path><path d="M159.89,377.38s-2.63,1.77-6.59,4c-7-8.38-21.82-23.6-22.27-24.14Z" style="fill:#263238"></path><path d="M111.24,336.92c-1.86,1.29-3.65,2.66-5.49,4s-3.66,2.53-5.37,4-3.4,3-5,4.55c-.79.75-1.58,1.51-2.34,2.29a21.34,21.34,0,0,0-2.24,2.42c-.06.09.06.18.14.13a23.78,23.78,0,0,0,2.48-2L96,350c1.67-1.42,3.37-2.8,5-4.23s3.19-3,4.83-4.39,3.6-3,5.43-4.41C111.31,337,111.28,336.89,111.24,336.92Z" style="fill:#263238"></path><path d="M287.37,410.78c-1.86,2-3.57,4.15-5.3,6.26s-3.46,4.25-5.17,6.39c-3.42,4.27-6.88,8.53-10.24,12.86-1.85,2.37-3.67,4.76-5.39,7.24-.08.11.1.23.18.13,3.69-4.05,7.05-8.37,10.47-12.64s6.84-8.58,10.19-12.91c1.84-2.37,3.74-4.73,5.42-7.21C287.6,410.8,287.45,410.69,287.37,410.78Z" style="fill:#263238"></path><path d="M208.3,411.17c-4.79-3.78-9.76-7.34-14.73-10.88s-9.89-7.06-14.91-10.48c-1.44-1-2.89-1.95-4.34-2.91s-3-1.86-4.38-2.86c-.08-.05-.16.08-.08.14,1.31.94,2.54,2,3.82,2.95s2.44,1.87,3.67,2.78c2.41,1.78,4.84,3.53,7.27,5.29,4.92,3.55,9.88,7.07,14.88,10.5,2.85,1.95,5.68,3.91,8.59,5.77C208.26,411.58,208.47,411.3,208.3,411.17Z" style="fill:#263238"></path><path d="M239.11,371.43c-4.43-3.67-9.18-7-13.82-10.37s-9.37-6.9-14.08-10.3l-14-10.15c-4.54-3.28-9.05-6.61-13.84-9.51-2.62-1.59-5.31-3.06-8.07-4.38a52.52,52.52,0,0,0-8.34-3.41c-.09,0-.13.1-.06.14,2.36,1.32,4.84,2.43,7.23,3.7s4.69,2.58,7,4c4.75,2.88,9.24,6.16,13.75,9.4,9.36,6.73,18.71,13.5,28.14,20.14,5.28,3.72,10.45,7.64,15.93,11C239.07,371.82,239.27,371.56,239.11,371.43Z" style="fill:#263238"></path></g><g id="freepik--Plant--inject-96"><path d="M456.45,356c-12.22,16.56-25,35.76-28.07,56.52,0,.32.47.42.54.11A123.12,123.12,0,0,1,434.33,396c8-2.21,15.92-4,20.14-12,4.3-8.19,3.75-18.88,2.94-27.81C457.35,355.66,456.7,355.64,456.45,356Z" style="fill:#37474F"></path><path d="M434.45,395.8C439.94,383.48,447,371.11,456,361c.06-.07.15,0,.09.1-5.86,7.21-10.32,15.07-14.67,23.07,4.05-4.11,8.48-7.79,12.31-12.15a.09.09,0,0,1,.13.12c-3.81,4.57-8,9.54-12.93,12.92q-2,3.68-4,7.37c.34-.19.68-.35,1-.52.06,0,.12.06.05.09-.37.19-.75.39-1.14.56-.64,1.16-1.28,2.33-1.94,3.49C434.69,396.29,434.33,396.06,434.45,395.8Z" style="fill:#263238"></path><path d="M438.53,391.5a71.2,71.2,0,0,0,9.38-6.26c.08-.06.2.05.12.11a49.13,49.13,0,0,1-9.36,6.38A.13.13,0,0,1,438.53,391.5Z" style="fill:#263238"></path><path d="M427,409.39c0,.25.45.24.45,0,.06-6.84,0-13.71.1-20.57,1.76-3.54,5.51-5.49,8.13-8.33a36.45,36.45,0,0,0,4.87-6.78,48.63,48.63,0,0,0,5.66-18.86c.72-7.31-2.05-31.44-5.14-30.6-1.59.43-6.77,12.38-8.14,16.33a113.16,113.16,0,0,0-4.86,20C425.54,376.68,425.75,393.2,427,409.39Z" style="fill:#37474F"></path><path d="M426.92,379.9l0,0c.38-8.65,2.32-17.38,4.15-25.77,2-9,4.26-17.55,8.91-25.61.09-.15.31,0,.23.14a95,95,0,0,0-7.16,19.65c.31-.48.69-.95,1-1.41.12-.18.42,0,.3.18a12.91,12.91,0,0,1-1.46,2.05l-.06,0c-1.6,6.46-2.75,13.07-3.73,19.66a2.75,2.75,0,0,1,.22-.26c.05,0,.13,0,.1.08-.12.22-.26.43-.39.65-.5,3.35-1,6.69-1.42,10,6-5.1,11-11.1,13.91-18.49,0,0,.07,0,.06,0-2.81,7.66-7.24,14.48-14.06,19.14-.13.89-.25,1.78-.38,2.67,0,.18-.32.13-.32-.05,0-.78,0-1.57.07-2.36A.19.19,0,0,1,426.92,379.9Z" style="fill:#263238"></path><path d="M429.73,367.37c4.55-6.8,8.8-13.39,12.13-20.9a.08.08,0,0,1,.15.06c-2.81,7.46-6.74,15-12.06,21C429.85,367.66,429.63,367.5,429.73,367.37Z" style="fill:#263238"></path><path d="M435.78,344.79c1.88-3.34,3.87-6.58,5.64-10,.05-.09.18,0,.14.09A51.75,51.75,0,0,1,436.07,345C435.94,345.13,435.67,345,435.78,344.79Z" style="fill:#263238"></path><path d="M435,346.24a0,0,0,1,1,0,.06A0,0,0,0,1,435,346.24Z" style="fill:#263238"></path><path d="M422.34,389.62a69,69,0,0,1-1.59,13.46l.21,1.48a64.4,64.4,0,0,0,2.41-15,.49.49,0,0,0,0-.47h0a99.92,99.92,0,0,0-1.51-20.34c-2.12-12.56-6.74-24.62-15.51-34a.62.62,0,0,0-1,.2c-3.54,9-2.3,19.71.71,28.68a52.42,52.42,0,0,0,6.94,13.62C416.07,381.43,419.9,385,422.34,389.62Z" style="fill:#37474F"></path><path d="M407.41,338.9c8.3,13.48,14.08,29.46,14.79,45.37,0,.29-.46.36-.5.07-.2-1.43-.42-2.85-.65-4.26h0c-3.44-3.29-7-6.76-9.42-10.88-.05-.07.06-.15.11-.09a112.24,112.24,0,0,0,9.16,10c-.6-3.52-1.3-7-2.14-10.39l-.65-.77c-.15-.17.09-.42.24-.25l.2.22a118.39,118.39,0,0,0-4.34-13.78c-2.11-2.52-4.48-4.7-6-7.74,0-.07.07-.13.11-.07,1.24,1.74,2.44,3.49,3.84,5.1.56.64,1.18,1.24,1.76,1.87a106.14,106.14,0,0,0-6.8-14.17A.19.19,0,0,1,407.41,338.9Z" style="fill:#263238"></path><path d="M409.09,355.53c2.68,3.61,5.74,7.05,8.24,10.79.07.1-.09.21-.18.13-3.2-3-5.92-7.11-8.24-10.82C408.84,355.51,409,355.42,409.09,355.53Z" style="fill:#263238"></path><path d="M417.7,367.15l.12.12c.08.08-.05.2-.13.12l-.11-.11C417.5,367.2,417.62,367.07,417.7,367.15Z" style="fill:#263238"></path><path d="M394.4,364.81a41.42,41.42,0,0,0,8.76,20.55,21.86,21.86,0,0,0,7.11,5.55c3.08,1.52,6.3,3.27,9.48,4.52a62.11,62.11,0,0,1,3.36,11.93c.1-.35.2-.71.31-1.06-2.05-17.55-13.41-32.55-27.93-42.18A.71.71,0,0,0,394.4,364.81Z" style="fill:#37474F"></path><path d="M399.42,370c-.1-.09,0-.27.15-.19a59.4,59.4,0,0,1,18.51,22.82c.11.24-.22.45-.36.21-.67-1.18-1.36-2.34-2.06-3.47h0c-3.32-.63-6.46-3-8.92-5.18-.07-.06,0-.16.1-.1a20.05,20.05,0,0,0,4.19,3c1.36.69,2.81,1.12,4.22,1.67-1.23-1.95-2.51-3.82-3.85-5.64a38.37,38.37,0,0,1-10-5.6.09.09,0,0,1,.1-.16,99.41,99.41,0,0,0,9.26,4.95,83.83,83.83,0,0,0-6.54-7.62c-1.13-.6-2.27-1.2-3.36-1.83-.09-.05,0-.21.07-.17a11.65,11.65,0,0,1,2.58,1.27C402.22,372.58,400.87,371.27,399.42,370Z" style="fill:#263238"></path><path d="M399.73,376.05a5.66,5.66,0,0,1,.56.4c0,.05,0,.12-.07.1a4.19,4.19,0,0,1-.58-.34C399.54,376.15,399.63,376,399.73,376.05Z" style="fill:#263238"></path><polygon points="446.09 445.37 406.28 445.37 409.49 409.12 410.2 401.12 442.17 401.12 442.88 409.12 446.09 445.37" style="fill:#455a64"></polygon><polygon points="442.88 409.12 409.49 409.12 410.2 401.12 442.17 401.12 442.88 409.12" style="fill:#263238"></polygon><rect x="408.29" y="395.53" width="35.78" height="7.91" style="fill:#455a64"></rect></g></svg>